<?xml version="1.0" standalone="no"?>
<!DOCTYPE svg PUBLIC "-//W3C//DTD SVG 20010904//EN"
 "http://www.w3.org/TR/2001/REC-SVG-20010904/DTD/svg10.dtd">
<svg version="1.0" xmlns="http://www.w3.org/2000/svg"
 width="500.000000pt" height="500.000000pt" viewBox="0 0 500.000000 500.000000"
 preserveAspectRatio="xMidYMid meet">
<metadata>
Created by potrace 1.15, written by Peter Selinger 2001-2017
</metadata>
<g transform="translate(0.000000,500.000000) scale(0.100000,-0.100000)"
fill="#000000" stroke="none">
<path d="M1662 3428 l3 -403 403 -3 402 -2 0 405 0 405 -405 0 -405 0 2 -402z
m498 137 c43 -22 60 -53 60 -110 0 -89 -45 -125 -160 -125 l-70 0 0 -55 c0
-52 -1 -55 -25 -55 l-25 0 0 180 0 180 95 0 c66 0 105 -5 125 -15z"/>
<path d="M1994 3527 c-3 -8 -4 -45 -2 -83 3 -64 5 -69 27 -72 43 -6 107 8 130
29 22 21 28 67 11 99 -19 36 -154 57 -166 27z"/>
<path d="M2816 3225 c-9 -26 -7 -32 5 -12 6 10 9 21 6 23 -2 3 -7 -2 -11 -11z"/>
<path d="M1908 2793 c7 -3 16 -2 19 1 4 3 -2 6 -13 5 -11 0 -14 -3 -6 -6z"/>
<path d="M2510 2355 l0 -405 405 0 405 0 0 405 0 405 -405 0 -405 0 0 -405z
m531 193 c39 -21 49 -41 28 -53 -5 -4 -33 3 -61 15 -65 28 -114 21 -156 -23
-43 -44 -55 -80 -42 -126 24 -89 132 -131 214 -83 25 15 37 17 45 9 20 -20 12
-33 -33 -55 -84 -42 -194 -20 -246 50 -19 26 -25 48 -28 103 -3 61 -1 75 20
105 53 78 175 105 259 58z"/>
<path d="M848 1633 c-8 -17 4 -173 13 -173 5 0 9 11 9 24 0 20 6 24 40 29 53
7 70 22 70 63 0 23 -7 38 -22 48 -23 16 -104 22 -110 9z m109 -39 c10 -27 -11
-49 -51 -52 -35 -3 -36 -2 -36 32 0 35 1 36 40 36 28 0 43 -5 47 -16z"/>
<path d="M1099 1558 c-19 -45 -35 -85 -37 -90 -2 -4 3 -8 11 -8 9 0 19 9 22
20 5 16 15 20 55 20 40 0 50 -4 55 -20 3 -11 13 -20 22 -20 8 0 13 3 11 8 -1
4 -19 44 -37 90 -24 55 -40 82 -51 82 -11 0 -28 -27 -51 -82z m69 17 c18 -38
15 -45 -18 -45 -16 0 -30 4 -30 10 0 15 23 60 30 60 4 0 12 -11 18 -25z"/>
<path d="M1312 1628 c3 -7 15 -15 29 -18 23 -6 24 -10 24 -78 0 -51 4 -72 13
-72 8 0 12 22 12 75 l0 75 30 0 c20 0 30 5 30 15 0 12 -15 15 -71 15 -51 0
-70 -3 -67 -12z"/>
<path d="M1520 1625 c0 -10 10 -15 30 -15 l30 0 0 -75 c0 -43 4 -75 10 -75 6
0 10 32 10 75 l0 75 30 0 c20 0 30 5 30 15 0 12 -14 15 -70 15 -56 0 -70 -3
-70 -15z"/>
<path d="M1750 1550 c0 -73 3 -90 15 -90 12 0 15 17 15 90 0 73 -3 90 -15 90
-12 0 -15 -17 -15 -90z"/>
<path d="M2037 1556 c-20 -47 -37 -87 -37 -90 0 -16 28 -3 33 14 4 17 14 20
55 20 42 0 52 -3 57 -20 3 -11 13 -20 20 -20 16 0 15 6 -34 113 -16 37 -36 67
-44 67 -8 0 -30 -37 -50 -84z m68 14 c20 -39 20 -40 -20 -40 l-35 0 17 35 c9
19 18 35 20 35 1 0 9 -13 18 -30z"/>
<path d="M2286 1627 c-12 -9 -17 -23 -14 -42 2 -24 10 -31 46 -43 31 -10 42
-19 40 -31 -4 -20 -49 -26 -78 -11 -19 10 -21 9 -18 -6 5 -26 60 -40 98 -24
52 22 33 79 -32 95 -31 8 -45 33 -23 42 9 3 29 3 45 -1 22 -4 30 -2 30 8 0 25
-65 34 -94 13z"/>
<path d="M2490 1550 l0 -90 65 0 c51 0 65 3 65 15 0 11 -12 15 -50 15 -47 0
-50 2 -50 25 0 23 4 25 46 25 59 0 55 24 -4 28 -33 3 -42 7 -42 22 0 15 9 19
47 22 26 2 48 9 51 16 3 9 -14 12 -62 12 l-66 0 0 -90z"/>
<path d="M2738 1629 c-11 -6 -18 -22 -18 -39 0 -24 6 -31 45 -46 32 -12 45
-22 43 -33 -4 -17 -48 -21 -82 -6 -14 6 -17 4 -14 -11 5 -26 59 -40 98 -24 23
10 30 19 30 40 0 23 -8 31 -45 49 -59 28 -62 56 -5 48 44 -6 61 6 31 22 -25
14 -61 14 -83 0z"/>
<path d="M2984 1630 c-29 -12 -54 -49 -54 -81 0 -36 34 -76 71 -84 92 -20 149
85 80 147 -32 29 -59 34 -97 18z m96 -52 c13 -25 13 -31 0 -55 -31 -56 -120
-35 -120 28 0 40 25 61 68 57 28 -2 40 -10 52 -30z"/>
<path d="M3210 1550 c0 -73 3 -90 15 -90 9 0 15 9 15 25 0 21 5 25 30 25 23 0
33 -6 42 -25 6 -14 17 -25 25 -25 17 0 16 5 -2 34 -14 21 -14 24 0 36 8 7 15
27 15 46 0 43 -30 64 -92 64 l-48 0 0 -90z m117 44 c10 -27 -11 -49 -51 -52
-35 -3 -36 -2 -36 32 0 35 1 36 40 36 28 0 43 -5 47 -16z"/>
<path d="M3460 1550 l0 -90 66 0 c48 0 65 3 61 13 -2 7 -22 12 -50 12 -45 0
-47 1 -47 28 0 25 3 27 40 27 29 0 40 4 40 15 0 11 -11 15 -40 15 -33 0 -40 3
-40 19 0 17 8 20 47 23 26 2 48 9 51 16 3 9 -14 12 -62 12 l-66 0 0 -90z"/>
<path d="M3700 1620 c-11 -11 -20 -24 -20 -28 0 -18 27 -40 63 -52 27 -8 37
-17 35 -28 -4 -21 -49 -27 -78 -12 -16 8 -20 8 -20 -3 0 -15 41 -37 68 -37 26
0 62 29 62 49 0 23 -27 48 -62 56 -19 5 -28 14 -28 27 0 18 5 20 40 15 47 -6
63 9 25 23 -39 15 -63 12 -85 -10z"/>
<path d="M4049 1585 c18 -32 31 -69 31 -90 0 -24 5 -35 15 -35 10 0 15 10 15
29 0 17 14 54 30 84 33 60 35 67 20 67 -5 0 -20 -18 -32 -40 -13 -22 -26 -40
-30 -40 -4 0 -18 18 -30 40 -13 22 -29 40 -36 40 -10 0 -4 -18 17 -55z"/>
<path d="M1269 1275 c-38 -20 -55 -67 -39 -105 14 -33 49 -60 79 -60 23 0 71
20 71 30 0 14 -14 19 -26 9 -24 -20 -77 -6 -94 24 -13 24 -13 30 1 55 14 24
20 27 67 26 57 -2 66 6 27 24 -33 15 -54 15 -86 -3z"/>
<path d="M1501 1264 c-25 -20 -31 -34 -31 -64 0 -30 6 -44 31 -64 17 -15 43
-26 59 -26 16 0 42 11 59 26 25 20 31 34 31 64 0 30 -6 44 -31 64 -17 15 -43
26 -59 26 -16 0 -42 -11 -59 -26z m107 -16 c7 -7 12 -28 12 -48 0 -46 -15 -60
-61 -60 -43 0 -62 19 -62 60 0 16 5 36 13 44 15 19 81 21 98 4z"/>
<path d="M1750 1199 c0 -64 3 -90 12 -87 6 2 12 26 12 55 1 28 4 54 7 57 3 3
25 -21 49 -54 61 -84 70 -80 70 30 0 72 -3 90 -15 90 -10 0 -15 -16 -17 -62
l-3 -63 -44 63 c-62 86 -71 82 -71 -29z"/>
<path d="M2032 1274 c-36 -25 -25 -55 28 -81 55 -26 60 -48 10 -47 -19 0 -41
2 -49 5 -7 2 -15 -1 -18 -7 -7 -19 54 -38 90 -28 26 8 33 15 35 42 3 30 0 34
-43 52 -57 24 -55 45 4 44 45 -1 58 19 19 30 -36 9 -52 7 -76 -10z"/>
<path d="M2230 1225 c0 -57 3 -69 26 -92 21 -21 32 -24 62 -19 20 3 43 13 49
23 15 20 18 153 3 153 -6 0 -10 -28 -10 -63 0 -69 -10 -87 -50 -87 -40 0 -50
18 -50 87 0 49 -3 63 -15 63 -12 0 -15 -14 -15 -65z"/>
<path d="M2490 1200 l0 -90 55 0 c42 0 55 3 55 15 0 11 -11 15 -40 15 l-40 0
0 75 c0 60 -3 75 -15 75 -12 0 -15 -17 -15 -90z"/>
<path d="M2670 1275 c0 -10 10 -15 30 -15 l30 0 0 -76 c0 -56 3 -75 13 -71 8
2 12 27 12 75 0 72 0 72 28 72 17 0 27 5 27 15 0 12 -14 15 -70 15 -56 0 -70
-3 -70 -15z"/>
<path d="M2950 1283 c-86 -32 -77 -146 13 -168 33 -9 84 10 97 36 11 20 13 69
4 94 -12 31 -75 52 -114 38z m88 -55 c19 -41 -2 -82 -45 -86 -51 -5 -73 12
-73 58 0 46 18 61 70 57 27 -1 38 -8 48 -29z"/>
<path d="M3170 1200 c0 -73 3 -90 15 -90 9 0 15 9 15 25 0 21 5 25 30 25 23 0
33 -6 42 -25 6 -14 17 -25 25 -25 17 0 16 5 -2 34 -14 21 -14 24 0 36 21 17
19 73 -3 93 -12 11 -36 17 -70 17 l-52 0 0 -90z m115 49 c4 -5 4 -21 1 -35 -5
-20 -12 -24 -46 -24 -39 0 -40 1 -40 35 0 34 1 35 39 35 22 0 43 -5 46 -11z"/>
<path d="M3420 1200 l0 -90 65 0 c51 0 65 3 65 15 0 11 -12 15 -50 15 -47 0
-50 2 -50 25 0 23 4 25 40 25 29 0 40 4 40 15 0 11 -11 15 -40 15 -33 0 -40 3
-40 20 0 17 7 20 45 20 33 0 45 4 45 15 0 12 -13 15 -60 15 l-60 0 0 -90z"/>
<path d="M3660 1270 c-29 -29 -13 -61 39 -78 30 -10 41 -19 39 -31 -4 -19 -55
-28 -71 -12 -15 15 -27 14 -27 -2 0 -15 41 -37 69 -37 10 0 29 8 41 18 35 29
21 68 -30 83 -29 9 -40 18 -40 32 0 17 5 19 40 14 47 -6 63 9 25 23 -39 15
-63 12 -85 -10z"/>
</g>
</svg>
