<?xml version="1.0" standalone="yes"?>
<svg xmlns="http://www.w3.org/2000/svg" width="500" height="500">
<path style="fill:#ffffff; stroke:none;" d="M0 0L0 500L500 500L500 0L0 0z"/>
<path style="fill:#a6c9ca; stroke:none;" d="M166 116C172.919 118.903 183.52 117 191 117L247 117C240.081 114.097 229.48 116 222 116L166 116z"/>
<path style="fill:#296e71; stroke:none;" d="M166 117L166 198L242 198C236.784 195.811 229.619 197 224 197L188 197C183.066 197 173.565 198.807 169.318 195.972C164.81 192.964 167 180.741 167 176L167 118L246 118L246 174C246 181.163 247.671 191.064 243 197C244.506 197.683 245.315 197.826 247 198L247 117L166 117z"/>
<path style="fill:#028f97; stroke:none;" d="M167 118L167 175C167 179.897 164.876 191.418 168.028 195.397C169.891 197.75 174.383 196.999 177 197L203 197L232 197C235.043 197.001 240.751 198.294 243.411 196.651C247.925 193.865 246 181.459 246 177L246 118L167 118z"/>
<path style="fill:#ce7b37; stroke:none;" d="M251 139L251 220L332 220L332 139L251 139z"/>
<path style="fill:#f48423; stroke:none;" d="M252 140L252 219L331 219L331 140L252 140z"/>
<path style="fill:#296e71; stroke:none;" d="M196 141C200.471 142.876 206.183 142 211 142C206.529 140.124 200.817 141 196 141z"/>
<path style="fill:#ffffff; stroke:none;" d="M194 142L194 178L198 178L198 167C203.852 167 210.698 167.846 215.956 164.721C222.801 160.654 223.571 149.478 216.892 144.843C210.627 140.497 201.187 142 194 142z"/>
<path style="fill:#a6c9ca; stroke:none;" d="M211 142C212.248 142.685 212.548 142.749 214 143C212.752 142.315 212.452 142.251 211 142M214.667 143.333C214.222 143.778 215.278 143.722 215.333 143.667C215.778 143.222 214.722 143.278 214.667 143.333M217 144L218 145L217 144M218 145L219 146L218 145M198 146L198 163C199.883 158.514 199.883 150.486 198 146z"/>
<path style="fill:#296e71; stroke:none;" d="M199 148C202.039 147.276 204.878 147.026 208 147C204.911 145.704 201.307 145.359 199 148z"/>
<path style="fill:#028f97; stroke:none;" d="M199 163C203.561 161.914 210.889 163.386 214.566 160.258C224.378 151.912 206.381 140.561 200.028 148.603C197.571 151.714 199 159.227 199 163z"/>
<path style="fill:#a6c9ca; stroke:none;" d="M211.667 146.333C211.222 146.778 212.278 146.722 212.333 146.667C212.778 146.222 211.722 146.278 211.667 146.333M219 146L220 147L219 146z"/>
<path style="fill:#888887; stroke:none;" d="M213 147L214 148L213 147z"/>
<path style="fill:#a6c9ca; stroke:none;" d="M214 147L215 148L214 147z"/>
<path style="fill:#888887; stroke:none;" d="M220 147L221 148L220 147z"/>
<path style="fill:#a6c9ca; stroke:none;" d="M215 148L216 149L215 148M220 148L221 149L220 148z"/>
<path style="fill:#296e71; stroke:none;" d="M221 149L222 150L221 149z"/>
<path style="fill:#a6c9ca; stroke:none;" d="M221.333 150.667C221.278 150.722 221.222 151.778 221.667 151.333C221.722 151.278 221.778 150.222 221.333 150.667z"/>
<path style="fill:#888887; stroke:none;" d="M217 152L217 155C217.696 153.446 217.696 153.554 217 152z"/>
<path style="fill:#a6c9ca; stroke:none;" d="M217 155L217 158C217.696 156.446 217.696 156.554 217 155M221 155L221 158C221.696 156.446 221.696 156.554 221 155z"/>
<path style="fill:#888887; stroke:none;" d="M216 158L217 159L216 158z"/>
<path style="fill:#296e71; stroke:none;" d="M221.333 158.667C221.278 158.722 221.222 159.778 221.667 159.333C221.722 159.278 221.778 158.222 221.333 158.667z"/>
<path style="fill:#a6c9ca; stroke:none;" d="M216 159L217 160L216 159M215 160L216 161L215 160M220 160L221 161L220 160z"/>
<path style="fill:#888887; stroke:none;" d="M213 161L214 162L213 161z"/>
<path style="fill:#296e71; stroke:none;" d="M200 162C202.613 163.098 205.164 162.993 208 163C205.387 161.902 202.835 162.007 200 162z"/>
<path style="fill:#888887; stroke:none;" d="M208 162C209.248 162.685 209.548 162.749 211 163C209.752 162.315 209.452 162.251 208 162z"/>
<path style="fill:#a6c9ca; stroke:none;" d="M211.667 162.333C211.222 162.778 212.278 162.722 212.333 162.667C212.778 162.222 211.722 162.278 211.667 162.333M219 162L220 163L219 162M218 163L219 164L218 163M216 164L217 165L216 164z"/>
<path style="fill:#888887; stroke:none;" d="M217 164L218 165L217 164z"/>
<path style="fill:#ce7b37; stroke:none;" d="M290 164C291.506 164.683 292.315 164.826 294 165C292.494 164.317 291.685 164.174 290 164z"/>
<path style="fill:#a6c9ca; stroke:none;" d="M215 165L216 166L215 165z"/>
<path style="fill:#ffffff; stroke:none;" d="M274 201C279.012 200.172 280.191 196.679 281 192C286.417 192 294.774 190.414 299.786 192.603C304.328 194.587 303.549 200.057 309 201C308.353 188.556 298.031 177.155 295 165C292.87 165.071 290.665 164.922 289.069 166.603C286.589 169.218 285.218 173.744 283.786 177C280.531 184.404 275.082 193.008 274 201z"/>
<path style="fill:#a6c9ca; stroke:none;" d="M211.667 166.333C211.222 166.778 212.278 166.722 212.333 166.667C212.778 166.222 211.722 166.278 211.667 166.333M198 167L198 178C199.431 174.59 199.431 170.41 198 167z"/>
<path style="fill:#296e71; stroke:none;" d="M199 167C203.217 168.769 208.459 168 213 168C208.783 166.231 203.541 167 199 167z"/>
<path style="fill:#ce7b37; stroke:none;" d="M285 169L284 174C285.513 172.347 286.181 171.106 287 169L285 169z"/>
<path style="fill:#a6c9ca; stroke:none;" d="M286.333 170.667C286.278 170.722 286.222 171.778 286.667 171.333C286.722 171.278 286.778 170.222 286.333 170.667M296 170L297 171L296 170M290 171L290 174C290.696 172.446 290.696 172.554 290 171z"/>
<path style="fill:#ce7b37; stroke:none;" d="M291 171L291 174C291.696 172.446 291.696 172.554 291 171z"/>
<path style="fill:#f48423; stroke:none;" d="M292 172C288.12 176.496 285.173 181.906 286 188C290.017 187.044 293.887 187 298 187L298 182L295 182C295.561 177.925 294.753 175.066 292 172z"/>
<path style="fill:#a6c9ca; stroke:none;" d="M298.333 174.667C298.278 174.722 298.222 175.778 298.667 175.333C298.722 175.278 298.778 174.222 298.333 174.667z"/>
<path style="fill:#ce7b37; stroke:none;" d="M282 176C280.81 179.657 279.563 183.188 279 187C281.317 183.903 283.128 179.814 282 176z"/>
<path style="fill:#a6c9ca; stroke:none;" d="M299 177L300 178L299 177M282.333 179.667C282.278 179.722 282.222 180.778 282.667 180.333C282.722 180.278 282.778 179.222 282.333 179.667M287 179L288 180L287 179M300 179L301 180L300 179M286.333 180.667C286.278 180.722 286.222 181.778 286.667 181.333C286.722 181.278 286.778 180.222 286.333 180.667z"/>
<path style="fill:#ce7b37; stroke:none;" d="M295 180C295.684 181.58 295.805 181.777 297 183C296.316 181.42 296.195 181.223 295 180z"/>
<path style="fill:#a6c9ca; stroke:none;" d="M298.333 184.667C298.278 184.722 298.222 185.778 298.667 185.333C298.722 185.278 298.778 184.222 298.333 184.667z"/>
<path style="fill:#ce7b37; stroke:none;" d="M284 186L284 188L286 188L286 186L284 186M298 186C294.343 187.081 290.801 187 287 187C288.957 188.128 299.371 189.322 298 186M306 188C306.45 192.397 308.322 195.964 310 200C311.118 195.924 308.272 191.377 306 188z"/>
<path style="fill:#a6c9ca; stroke:none;" d="M305 189L305 192C305.696 190.446 305.696 190.554 305 189z"/>
<path style="fill:#ce7b37; stroke:none;" d="M282 192C287.469 194.295 295.099 193 301 193C295.531 190.705 287.901 192 282 192z"/>
<path style="fill:#a6c9ca; stroke:none;" d="M275.333 195.667C275.278 195.722 275.222 196.778 275.667 196.333C275.722 196.278 275.778 195.222 275.333 195.667M303 196L304 197L303 196M247 197L248 198L247 197M279 197L280 198L279 197M166 201C172.919 203.903 183.52 202 191 202L247 202C240.081 199.097 229.48 201 222 201L166 201z"/>
<path style="fill:#ce7b37; stroke:none;" d="M274 203L278 202C275.954 201.249 275.404 201.344 274 203z"/>
<path style="fill:#f48423; stroke:none;" d="M166 202C168.091 228.499 167 255.391 167 282L246 282C246 255.301 246.45 228.625 247 202L166 202z"/>
<path style="fill:#ce7b37; stroke:none;" d="M306 202C307.248 202.685 307.548 202.749 309 203C307.752 202.315 307.452 202.251 306 202M166 206L166 283L247 283L247 208C244.299 214.436 246 224.049 246 231L246 282L167 282L167 230C167 222.784 168.802 212.678 166 206M190 220C191.506 220.683 192.315 220.826 194 221C192.494 220.317 191.685 220.174 190 220z"/>
<path style="fill:#a6c9ca; stroke:none;" d="M251 220C257.919 222.903 268.52 221 276 221L332 221C325.081 218.097 314.48 220 307 220L251 220z"/>
<path style="fill:#ce7b37; stroke:none;" d="M216 223L222 222C219.471 220.961 217.824 220.907 216 223z"/>
<path style="fill:#ffffff; stroke:none;" d="M191 222C193.377 230.231 199.935 236.211 203.006 244.039C204.683 248.315 204 253.493 204 258L208 258C208 254.107 207.481 249.751 208.699 246C211.497 237.382 218.468 230.788 221 222C213.985 223.203 209.591 233.986 207 240L205 240C202.792 233.578 198.364 223.079 191 222z"/>
<path style="fill:#a6c9ca; stroke:none;" d="M195.333 222.667C195.278 222.722 195.222 223.778 195.667 223.333C195.722 223.278 195.778 222.222 195.333 222.667z"/>
<path style="fill:#ce7b37; stroke:none;" d="M191 224C191.421 226.843 191.939 228.012 194 230C193.221 227.73 192.402 225.941 191 224z"/>
<path style="fill:#296e71; stroke:none;" d="M251 224L251 284C251 289.373 248.764 301.298 253 305C251.305 297.88 252 290.281 252 283L252 246C252 239.782 250.127 230.113 254 225C252.752 224.315 252.452 224.251 251 224z"/>
<path style="fill:#028f97; stroke:none;" d="M332 305L332 224L277 224C270.821 224 259.899 221.897 254.318 224.742C250.023 226.932 252 237.969 252 242L252 288C252 291.786 250.284 301.343 253.603 303.972C255.281 305.301 258.008 304.986 260 304.999L275 305L332 305z"/>
<path style="fill:#a6c9ca; stroke:none;" d="M332 224L332 305C334.497 299.049 333 290.42 333 284L333 243C333 237.113 334.292 229.462 332 224z"/>
<path style="fill:#ce7b37; stroke:none;" d="M213 225C211.44 227.978 209.949 230.77 209 234C211.973 231.452 213.492 228.597 215 225L213 225z"/>
<path style="fill:#a6c9ca; stroke:none;" d="M215 225L216 226L215 225z"/>
<path style="fill:#f48423; stroke:none;" d="M192 226L193 227L192 226M214 226L215 227L214 226z"/>
<path style="fill:#ce7b37; stroke:none;" d="M198 227L201 233C201.818 229.939 200.64 228.536 198 227z"/>
<path style="fill:#a6c9ca; stroke:none;" d="M213 228L214 229L213 228z"/>
<path style="fill:#f48423; stroke:none;" d="M199 229L200 230L199 229z"/>
<path style="fill:#ce7b37; stroke:none;" d="M217 230L216 234C217.303 232.332 217.553 232.008 217 230z"/>
<path style="fill:#a6c9ca; stroke:none;" d="M210 233L211 234L210 233M215 233L216 234L215 233M198 236L199 237L198 236M203 236L204 237L203 236M208 236L209 237L208 236M212 238L213 239L212 238z"/>
<path style="fill:#ce7b37; stroke:none;" d="M205.667 239.333C205.222 239.778 206.278 239.722 206.333 239.667C206.778 239.222 205.722 239.278 205.667 239.333z"/>
<path style="fill:#a6c9ca; stroke:none;" d="M201.333 240.667C201.278 240.722 201.222 241.778 201.667 241.333C201.722 241.278 201.778 240.222 201.333 240.667z"/>
<path style="fill:#888887; stroke:none;" d="M288.667 243.333C288.222 243.778 289.278 243.722 289.333 243.667C289.778 243.222 288.722 243.278 288.667 243.333z"/>
<path style="fill:#a6c9ca; stroke:none;" d="M290.667 243.333C290.222 243.778 291.278 243.722 291.333 243.667C291.778 243.222 290.722 243.278 290.667 243.333z"/>
<path style="fill:#ffffff; stroke:none;" d="M307 272L306 271C300.418 273.198 295.025 276.552 289 273.543C277.68 267.89 277.336 252.17 290.004 247.854C295.955 245.827 301.245 249.01 307 250C305.556 245.659 301.41 243.973 297 243.34C288.134 242.069 278.353 248.104 276.394 257C274.965 263.489 277.69 271.287 283.043 275.196C290.206 280.427 302.667 280.674 307 272z"/>
<path style="fill:#a6c9ca; stroke:none;" d="M298 243L299 244L298 243M286.667 244.333C286.222 244.778 287.278 244.722 287.333 244.667C287.778 244.222 286.722 244.278 286.667 244.333M301 244L302 245L301 244z"/>
<path style="fill:#888887; stroke:none;" d="M302 244L303 245L302 244z"/>
<path style="fill:#a6c9ca; stroke:none;" d="M284 245L285 246L284 245M304 245L305 246L304 245z"/>
<path style="fill:#ce7b37; stroke:none;" d="M203 246L203 256C204.346 252.793 204.346 249.207 203 246z"/>
<path style="fill:#a6c9ca; stroke:none;" d="M283 246L284 247L283 246M305 246L306 247L305 246z"/>
<path style="fill:#888887; stroke:none;" d="M281 247L282 248L281 247z"/>
<path style="fill:#a6c9ca; stroke:none;" d="M282 247L283 248L282 247M290 247L291 248L290 247z"/>
<path style="fill:#296e71; stroke:none;" d="M291 247C293.052 247.874 294.747 247.953 297 248C294.948 247.126 293.253 247.047 291 247z"/>
<path style="fill:#a6c9ca; stroke:none;" d="M298 247L299 248L298 247z"/>
<path style="fill:#888887; stroke:none;" d="M307 247L308 248L307 247z"/>
<path style="fill:#a6c9ca; stroke:none;" d="M287 248L288 249L287 248M301 248L302 249L301 248M307 248L308 249L307 248M286 249L287 250L286 249M302.667 249.333C302.222 249.778 303.278 249.722 303.333 249.667C303.778 249.222 302.722 249.278 302.667 249.333M279 250L280 251L279 250M284 250L285 251L284 250M304.667 250.333C304.222 250.778 305.278 250.722 305.333 250.667C305.778 250.222 304.722 250.278 304.667 250.333z"/>
<path style="fill:#888887; stroke:none;" d="M306 250L307 251L306 250z"/>
<path style="fill:#a6c9ca; stroke:none;" d="M278 251L279 252L278 251z"/>
<path style="fill:#888887; stroke:none;" d="M277 252L278 253L277 252z"/>
<path style="fill:#a6c9ca; stroke:none;" d="M277 253L278 254L277 253M282 253L283 254L282 253z"/>
<path style="fill:#888887; stroke:none;" d="M276.333 254.667C276.278 254.722 276.222 255.778 276.667 255.333C276.722 255.278 276.778 254.222 276.333 254.667z"/>
<path style="fill:#a6c9ca; stroke:none;" d="M281 254L282 255L281 254z"/>
<path style="fill:#888887; stroke:none;" d="M281 255L282 256L281 255z"/>
<path style="fill:#a6c9ca; stroke:none;" d="M280.333 256.667C280.278 256.722 280.222 257.778 280.667 257.333C280.722 257.278 280.778 256.222 280.333 256.667z"/>
<path style="fill:#ce7b37; stroke:none;" d="M204 258C205.506 258.683 206.315 258.826 208 259C206.494 258.317 205.685 258.174 204 258z"/>
<path style="fill:#888887; stroke:none;" d="M280 258L281 259L280 258M280.333 262.667C280.278 262.722 280.222 263.778 280.667 263.333C280.722 263.278 280.778 262.222 280.333 262.667z"/>
<path style="fill:#a6c9ca; stroke:none;" d="M276.333 264.667C276.278 264.722 276.222 265.778 276.667 265.333C276.722 265.278 276.778 264.222 276.333 264.667M280 264L281 265L280 264z"/>
<path style="fill:#888887; stroke:none;" d="M276 266L277 267L276 266M281 266L282 267L281 266z"/>
<path style="fill:#a6c9ca; stroke:none;" d="M281 267L282 268L281 267M277 268L278 269L277 268M282 268L283 269L282 268z"/>
<path style="fill:#888887; stroke:none;" d="M283 269L284 270L283 269z"/>
<path style="fill:#a6c9ca; stroke:none;" d="M278 270L279 271L278 270M284 270L285 271L284 270M306 271L307 272L306 271M286 272L287 273L286 272M302 272L303 273L302 272M307.333 272.667C307.278 272.722 307.222 273.778 307.667 273.333C307.722 273.278 307.778 272.222 307.333 272.667M280 273L281 274L280 273z"/>
<path style="fill:#296e71; stroke:none;" d="M297.667 273.333C297.222 273.778 298.278 273.722 298.333 273.667C298.778 273.222 297.722 273.278 297.667 273.333z"/>
<path style="fill:#888887; stroke:none;" d="M300 273L301 274L300 273z"/>
<path style="fill:#a6c9ca; stroke:none;" d="M301 273L302 274L301 273M290.667 274.333C290.222 274.778 291.278 274.722 291.333 274.667C291.778 274.222 290.722 274.278 290.667 274.333z"/>
<path style="fill:#296e71; stroke:none;" d="M292 274C293.506 274.683 294.315 274.826 296 275C294.494 274.317 293.685 274.174 292 274z"/>
<path style="fill:#a6c9ca; stroke:none;" d="M296.667 274.333C296.222 274.778 297.278 274.722 297.333 274.667C297.778 274.222 296.722 274.278 296.667 274.333M306 274L307 275L306 274M283 275L284 276L283 275M305 275L306 276L305 275M284 276L285 277L284 276M286 277L287 278L286 277M301 277L302 278L301 277z"/>
<path style="fill:#888887; stroke:none;" d="M302 277L303 278L302 277z"/>
<path style="fill:#a6c9ca; stroke:none;" d="M290.667 278.333C290.222 278.778 291.278 278.722 291.333 278.667C291.778 278.222 290.722 278.278 290.667 278.333z"/>
<path style="fill:#888887; stroke:none;" d="M299 278L300 279L299 278z"/>
<path style="fill:#a6c9ca; stroke:none;" d="M251 305C257.919 307.903 268.52 306 276 306L332 306C325.081 303.097 314.48 305 307 305L251 305z"/>
<path style="fill:#888887; stroke:none;" d="M84 336L84 354C85.9516 349.349 85.9516 340.651 84 336z"/>
<path style="fill:#161616; stroke:none;" d="M85 336L85 354L87 354L87 348C89.5849 347.998 93.185 348.549 95.4275 346.972C98.7986 344.601 98.1114 339.307 94.7716 337.318C91.9496 335.637 88.1482 336.009 85 336z"/>
<path style="fill:#296e71; stroke:none;" d="M93 336L94 337L93 336z"/>
<path style="fill:#888887; stroke:none;" d="M94 336L95 337L94 336z"/>
<path style="fill:#161616; stroke:none;" d="M113 336C111.498 342.321 108.205 347.923 106 354C109.332 353.29 109.519 349.791 113 349.111C118.821 347.975 119.595 353.061 124 354C121.558 348.048 118.701 342.221 117 336L113 336z"/>
<path style="fill:#a6c9ca; stroke:none;" d="M130 336L130 339C130.696 337.446 130.696 337.554 130 336z"/>
<path style="fill:#161616; stroke:none;" d="M131 336L131 338L137 338L137 354L139 354L139 338L145 338L145 336L131 336z"/>
<path style="fill:#a6c9ca; stroke:none;" d="M151 336L151 339C151.696 337.446 151.696 337.554 151 336z"/>
<path style="fill:#161616; stroke:none;" d="M152 336L152 338C159.934 339.265 158 347.702 158 354L160 354L160 338L166 338L166 336L152 336z"/>
<path style="fill:#a6c9ca; stroke:none;" d="M166.333 336.667C166.278 336.722 166.222 337.778 166.667 337.333C166.722 337.278 166.778 336.222 166.333 336.667z"/>
<path style="fill:#161616; stroke:none;" d="M175 336L175 354L178 354L178 336L175 336M207 336C205.215 342.199 201.777 347.784 200 354C205.268 350.744 207.462 349.005 214 349C214.526 351.543 214.878 352.535 217 354C215.898 347.622 212.443 341.946 210 336L207 336z"/>
<path style="fill:#296e71; stroke:none;" d="M210.333 336.667C210.278 336.722 210.222 337.778 210.667 337.333C210.722 337.278 210.778 336.222 210.333 336.667z"/>
<path style="fill:#a6c9ca; stroke:none;" d="M229 336L230 337L229 336z"/>
<path style="fill:#888887; stroke:none;" d="M230 336L231 337L230 336z"/>
<path style="fill:#161616; stroke:none;" d="M236 351L226 350C228.657 353.878 240.033 355.248 238.248 348.09C237.241 344.047 231.018 342.857 229 339C232.078 339.064 234.975 339.438 238 340C235.52 335.758 226.11 335.291 227.752 341.907C228.801 346.137 234.607 346.398 236 351z"/>
<path style="fill:#888887; stroke:none;" d="M235 336L236 337L235 336z"/>
<path style="fill:#a6c9ca; stroke:none;" d="M236 336L237 337L236 336z"/>
<path style="fill:#161616; stroke:none;" d="M249 336L249 354L262 354L262 352L252 352L252 346L260 346L260 344L252 344L252 338L262 338L262 336L249 336z"/>
<path style="fill:#a6c9ca; stroke:none;" d="M274 336L275 337L274 336z"/>
<path style="fill:#888887; stroke:none;" d="M275 336L276 337L275 336z"/>
<path style="fill:#161616; stroke:none;" d="M282 350C278.13 350.889 274.897 350.49 271 350C273.739 353.719 285.084 355.518 283.248 348.093C282.249 344.052 276.016 342.854 274 339C277.357 339.026 280.674 339.366 284 339C280.787 336.209 269.938 335.437 272.662 342.585C273.838 345.67 279.762 347.245 282 350z"/>
<path style="fill:#888887; stroke:none;" d="M280 336L281 337L280 336z"/>
<path style="fill:#a6c9ca; stroke:none;" d="M281 336L282 337L281 336M298 336L299 337L298 336z"/>
<path style="fill:#888887; stroke:none;" d="M299 336L300 337L299 336z"/>
<path style="fill:#296e71; stroke:none;" d="M300 336L301 337L300 336z"/>
<path style="fill:#161616; stroke:none;" d="M301.004 336.638C289.861 338.254 292.03 354.713 302.999 353.551C314.283 352.356 312.162 335.02 301.004 336.638z"/>
<path style="fill:#888887; stroke:none;" d="M304.667 336.333C304.222 336.778 305.278 336.722 305.333 336.667C305.778 336.222 304.722 336.278 304.667 336.333z"/>
<path style="fill:#161616; stroke:none;" d="M321 336C321 342.106 321.235 347.946 322 354L324 354L324 348C329.048 348.39 330.797 351.84 335 354C332.498 348.755 335.716 346.032 334.522 341.104C333.17 335.521 325.411 336.012 321 336z"/>
<path style="fill:#296e71; stroke:none;" d="M329.667 336.333C329.222 336.778 330.278 336.722 330.333 336.667C330.778 336.222 329.722 336.278 329.667 336.333z"/>
<path style="fill:#888887; stroke:none;" d="M331 336L332 337L331 336z"/>
<path style="fill:#161616; stroke:none;" d="M346 336L346 354L359 354L359 352L349 352C348.998 348.618 347.231 341.251 350.357 339.028C352.399 337.575 355.642 338.008 358 338L358 336L346 336z"/>
<path style="fill:#888887; stroke:none;" d="M358 336L358 339C358.696 337.446 358.696 337.554 358 336z"/>
<path style="fill:#a6c9ca; stroke:none;" d="M371 336L372 337L371 336z"/>
<path style="fill:#888887; stroke:none;" d="M372 336L373 337L372 336z"/>
<path style="fill:#161616; stroke:none;" d="M378 351C374.377 350.915 371.4 350.24 368 349C369.707 353.904 380.066 355.903 380.248 348.989C380.362 344.706 372.929 342.687 371 339C374.078 339.064 376.975 339.438 380 340C377.52 335.758 368.11 335.291 369.752 341.907C370.801 346.137 376.607 346.398 378 351z"/>
<path style="fill:#888887; stroke:none;" d="M377 336L378 337L377 336z"/>
<path style="fill:#a6c9ca; stroke:none;" d="M378 336L379 337L378 336M401 336L402 337L401 336z"/>
<path style="fill:#161616; stroke:none;" d="M402 336C405.079 341.852 408.65 347.248 409 354L411 354C411.077 347.088 414.413 342.212 417 336C413.286 338.27 411.472 341.979 410 346C408.088 342.755 406.288 339.539 405 336L402 336z"/>
<path style="fill:#888887; stroke:none;" d="M414 336L415 337L414 336M417 336L418 337L417 336z"/>
<path style="fill:#a6c9ca; stroke:none;" d="M96 337L97 338L96 337M117 337L118 338L117 337M206 337L207 338L206 337M227 337L228 338L227 337z"/>
<path style="fill:#296e71; stroke:none;" d="M228 337L229 338L228 337M237 337L238 338L237 337z"/>
<path style="fill:#888887; stroke:none;" d="M238 337L238 340C238.696 338.446 238.696 338.554 238 337z"/>
<path style="fill:#a6c9ca; stroke:none;" d="M272 337L273 338L272 337z"/>
<path style="fill:#888887; stroke:none;" d="M273 337L274 338L273 337M283 337L284 338L283 337z"/>
<path style="fill:#a6c9ca; stroke:none;" d="M296 337L297 338L296 337z"/>
<path style="fill:#888887; stroke:none;" d="M297 337L298 338L297 337z"/>
<path style="fill:#296e71; stroke:none;" d="M306 337L307 338L306 337z"/>
<path style="fill:#888887; stroke:none;" d="M307 337L308 338L307 337z"/>
<path style="fill:#296e71; stroke:none;" d="M332 337L333 338L332 337z"/>
<path style="fill:#888887; stroke:none;" d="M333 337L334 338L333 337z"/>
<path style="fill:#a6c9ca; stroke:none;" d="M369 337L370 338L369 337z"/>
<path style="fill:#296e71; stroke:none;" d="M370 337L371 338L370 337M379 337L380 338L379 337z"/>
<path style="fill:#a6c9ca; stroke:none;" d="M380 337L381 338L380 337z"/>
<path style="fill:#888887; stroke:none;" d="M402 337L403 338L402 337z"/>
<path style="fill:#a6c9ca; stroke:none;" d="M405 337L406 338L405 337z"/>
<path style="fill:#296e71; stroke:none;" d="M414 337L415 338L414 337M416 337L417 338L416 337z"/>
<path style="fill:#a6c9ca; stroke:none;" d="M417 337L418 338L417 337z"/>
<path style="fill:#888887; stroke:none;" d="M87 338C89.0521 338.874 90.7472 338.953 93 339C90.9479 338.126 89.2528 338.047 87 338M97 338L98 339L97 338M112 338L113 339L112 338M117 338L118 339L117 338M131 338C132.769 338.779 134.036 338.912 136 339L136 354C137.982 349.276 137 343.09 137 338L131 338M139 338C141.052 338.874 142.747 338.953 145 339C142.948 338.126 141.253 338.047 139 338M152 338C153.769 338.779 155.036 338.912 157 339C155.231 338.221 153.964 338.088 152 338M160 338C162.052 338.874 163.747 338.953 166 339C163.948 338.126 162.253 338.047 160 338M206 338L207 339L206 338z"/>
<path style="fill:#a6c9ca; stroke:none;" d="M211 338L212 339L211 338z"/>
<path style="fill:#296e71; stroke:none;" d="M227 338L228 339L227 338M252 338C255.163 339.327 258.586 339 262 339C258.837 337.673 255.414 338 252 338M272 338L273 339L272 338z"/>
<path style="fill:#a6c9ca; stroke:none;" d="M295 338L296 339L295 338z"/>
<path style="fill:#296e71; stroke:none;" d="M300 338C301.506 338.683 302.315 338.826 304 339C302.494 338.317 301.685 338.174 300 338z"/>
<path style="fill:#888887; stroke:none;" d="M308 338L309 339L308 338M324 338C326.052 338.874 327.747 338.953 330 339C327.948 338.126 326.253 338.047 324 338M334 338L335 339L334 338z"/>
<path style="fill:#296e71; stroke:none;" d="M349 338C351.89 339.213 354.874 338.998 358 339C355.11 337.787 352.126 338.002 349 338M369 338L370 339L369 338z"/>
<path style="fill:#888887; stroke:none;" d="M380 338L381 339L380 338z"/>
<path style="fill:#296e71; stroke:none;" d="M403 338L404 339L403 338M405 338L406 339L405 338z"/>
<path style="fill:#888887; stroke:none;" d="M413 338L414 339L413 338z"/>
<path style="fill:#a6c9ca; stroke:none;" d="M416 338L417 339L416 338M87 339L87 346C88.0595 343.466 88.0594 341.534 87 339z"/>
<path style="fill:#ffffff; stroke:none;" d="M88 339L88 346C90.9715 345.81 93.2599 345.166 96 344C94.6971 339.708 92.265 339.139 88 339z"/>
<path style="fill:#888887; stroke:none;" d="M94 339L95 340L94 339z"/>
<path style="fill:#296e71; stroke:none;" d="M97 339L98 340L97 339z"/>
<path style="fill:#888887; stroke:none;" d="M114.667 339.333C114.222 339.778 115.278 339.722 115.333 339.667C115.778 339.222 114.722 339.278 114.667 339.333z"/>
<path style="fill:#a6c9ca; stroke:none;" d="M139 339L139 354C140.74 349.852 140.74 343.148 139 339z"/>
<path style="fill:#888887; stroke:none;" d="M157 339L157 354C158.74 349.852 158.74 343.148 157 339z"/>
<path style="fill:#a6c9ca; stroke:none;" d="M160 339L160 354C161.74 349.852 161.74 343.148 160 339M205 339L206 340L205 339z"/>
<path style="fill:#888887; stroke:none;" d="M208 339C208.545 340.635 208.365 340.455 210 341C209.455 339.365 209.635 339.545 208 339M211 339L212 340L211 339M226 339L226 343C226.71 341.24 226.71 340.759 226 339z"/>
<path style="fill:#296e71; stroke:none;" d="M229 339L230 340L229 339z"/>
<path style="fill:#a6c9ca; stroke:none;" d="M230 339L231 340L230 339M235 339L236 340L235 339M271 339L271 342C271.696 340.446 271.696 340.554 271 339z"/>
<path style="fill:#296e71; stroke:none;" d="M274 339L274 342C274.696 340.446 274.696 340.554 274 339z"/>
<path style="fill:#a6c9ca; stroke:none;" d="M275 339L276 340L275 339M280 339L281 340L280 339z"/>
<path style="fill:#888887; stroke:none;" d="M281 339L282 340L281 339M283 339L284 340L283 339M294 339L295 340L294 339M298 339C296.814 340.186 296.472 340.584 296 342C297.548 340.738 297.808 340.806 298 339z"/>
<path style="fill:#a6c9ca; stroke:none;" d="M299 339L300 340L299 339z"/>
<path style="fill:#ffffff; stroke:none;" d="M300.189 339.747C293.082 342.026 296.975 352.657 303.941 350.214C310.847 347.792 307.025 337.554 300.189 339.747z"/>
<path style="fill:#a6c9ca; stroke:none;" d="M304 339L305 340L304 339z"/>
<path style="fill:#888887; stroke:none;" d="M305 339L306 340L305 339M309 339L310 340L309 339z"/>
<path style="fill:#ffffff; stroke:none;" d="M324 339L324 346C325.781 345.979 328.035 346.233 329.686 345.397C336.372 342.008 326.851 339.034 324 339z"/>
<path style="fill:#888887; stroke:none;" d="M331 339L332 340L331 339z"/>
<path style="fill:#296e71; stroke:none;" d="M334 339L335 340L334 339M348 339L348 343C348.71 341.241 348.71 340.759 348 339z"/>
<path style="fill:#888887; stroke:none;" d="M368 339L368 342C368.696 340.446 368.696 340.554 368 339M371 339L371 342C371.696 340.446 371.696 340.554 371 339z"/>
<path style="fill:#a6c9ca; stroke:none;" d="M372 339L373 340L372 339M376.667 339.333C376.222 339.778 377.278 339.722 377.333 339.667C377.778 339.222 376.722 339.278 376.667 339.333M380 339L381 340L380 339z"/>
<path style="fill:#888887; stroke:none;" d="M403 339L404 340L403 339M406 339L407 340L406 339z"/>
<path style="fill:#a6c9ca; stroke:none;" d="M412 339L413 340L412 339z"/>
<path style="fill:#296e71; stroke:none;" d="M415 339L416 340L415 339z"/>
<path style="fill:#888887; stroke:none;" d="M95 340L96 341L95 340M98 340L98 344C98.7102 342.241 98.7102 341.759 98 340M111 340L112 341L111 340z"/>
<path style="fill:#a6c9ca; stroke:none;" d="M114.667 340.333C114.222 340.778 115.278 340.722 115.333 340.667C115.778 340.222 114.722 340.278 114.667 340.333z"/>
<path style="fill:#888887; stroke:none;" d="M118 340L119 341L118 340M205 340L206 341L205 340z"/>
<path style="fill:#ffffff; stroke:none;" d="M208 340L206 347L212 347C210.907 344.393 209.802 342.171 208 340z"/>
<path style="fill:#a6c9ca; stroke:none;" d="M212 340L213 341L212 340z"/>
<path style="fill:#888887; stroke:none;" d="M229.333 340.667C229.278 340.722 229.222 341.778 229.667 341.333C229.722 341.278 229.778 340.222 229.333 340.667z"/>
<path style="fill:#a6c9ca; stroke:none;" d="M293 340L294 341L293 340z"/>
<path style="fill:#296e71; stroke:none;" d="M294 340L295 341L294 340z"/>
<path style="fill:#a6c9ca; stroke:none;" d="M306 340L307 341L306 340z"/>
<path style="fill:#888887; stroke:none;" d="M310 340L311 341L310 340M332 340L333 341L332 340M335 340L335 345C335.83 342.97 335.83 342.03 335 340z"/>
<path style="fill:#a6c9ca; stroke:none;" d="M379 340L380 341L379 340z"/>
<path style="fill:#296e71; stroke:none;" d="M404 340L405 341L404 340z"/>
<path style="fill:#a6c9ca; stroke:none;" d="M407 340L408 341L407 340z"/>
<path style="fill:#888887; stroke:none;" d="M412 340L413 341L412 340z"/>
<path style="fill:#a6c9ca; stroke:none;" d="M415 340L416 341L415 340z"/>
<path style="fill:#296e71; stroke:none;" d="M111 341L112 342L111 341M113 341L114 342L113 341z"/>
<path style="fill:#ffffff; stroke:none;" d="M114 341L112 347L118 347L116 341L114 341z"/>
<path style="fill:#888887; stroke:none;" d="M207 341L208 342L207 341z"/>
<path style="fill:#a6c9ca; stroke:none;" d="M209 341L210 342L209 341z"/>
<path style="fill:#888887; stroke:none;" d="M212 341L213 342L212 341z"/>
<path style="fill:#a6c9ca; stroke:none;" d="M275 341L276 342L275 341z"/>
<path style="fill:#888887; stroke:none;" d="M293 341L294 342L293 341z"/>
<path style="fill:#a6c9ca; stroke:none;" d="M297 341L298 342L297 341z"/>
<path style="fill:#888887; stroke:none;" d="M307 341L308 342L307 341z"/>
<path style="fill:#296e71; stroke:none;" d="M310 341L311 342L310 341z"/>
<path style="fill:#a6c9ca; stroke:none;" d="M332 341L332 344C332.696 342.446 332.696 342.554 332 341M404 341L405 342L404 341z"/>
<path style="fill:#296e71; stroke:none;" d="M407 341L408 342L407 341z"/>
<path style="fill:#888887; stroke:none;" d="M411 341L412 342L411 341M414 341L415 342L414 341z"/>
<path style="fill:#a6c9ca; stroke:none;" d="M110 342L111 343L110 342M113 342L114 343L113 342z"/>
<path style="fill:#888887; stroke:none;" d="M116 342L117 343L116 342M119 342L120 343L119 342M204 342L205 343L204 342M206.333 342.667C206.278 342.722 206.222 343.778 206.667 343.333C206.722 343.278 206.778 342.222 206.333 342.667M210.333 342.667C210.278 342.722 210.222 343.778 210.667 343.333C210.722 343.278 210.778 342.222 210.333 342.667z"/>
<path style="fill:#a6c9ca; stroke:none;" d="M213 342L214 343L213 342z"/>
<path style="fill:#888887; stroke:none;" d="M230 342L231 343L230 342z"/>
<path style="fill:#a6c9ca; stroke:none;" d="M231 342L232 343L231 342z"/>
<path style="fill:#888887; stroke:none;" d="M275 342L276 343L275 342z"/>
<path style="fill:#a6c9ca; stroke:none;" d="M292 342L292 347C292.83 344.97 292.83 344.03 292 342z"/>
<path style="fill:#888887; stroke:none;" d="M308 342L308 347C308.83 344.97 308.83 344.03 308 342M311 342L311 347C311.83 344.97 311.83 344.03 311 342z"/>
<path style="fill:#a6c9ca; stroke:none;" d="M368 342L369 343L368 342z"/>
<path style="fill:#888887; stroke:none;" d="M372 342L373 343L372 342M405 342L406 343L405 342z"/>
<path style="fill:#a6c9ca; stroke:none;" d="M408 342L409 343L408 342z"/>
<path style="fill:#296e71; stroke:none;" d="M411 342L412 343L411 342z"/>
<path style="fill:#a6c9ca; stroke:none;" d="M414 342L415 343L414 342z"/>
<path style="fill:#888887; stroke:none;" d="M110 343L111 344L110 343z"/>
<path style="fill:#296e71; stroke:none;" d="M119 343L120 344L119 343z"/>
<path style="fill:#888887; stroke:none;" d="M213 343L214 344L213 343z"/>
<path style="fill:#296e71; stroke:none;" d="M227 343L228 344L227 343z"/>
<path style="fill:#888887; stroke:none;" d="M232 343L233 344L232 343z"/>
<path style="fill:#a6c9ca; stroke:none;" d="M233 343L234 344L233 343z"/>
<path style="fill:#296e71; stroke:none;" d="M252 343C254.802 344.19 257.516 344.114 260 346C260.632 342.164 254.732 343.002 252 343z"/>
<path style="fill:#888887; stroke:none;" d="M260 343L261 344L260 343z"/>
<path style="fill:#296e71; stroke:none;" d="M277 343L278 344L277 343z"/>
<path style="fill:#a6c9ca; stroke:none;" d="M278 343L279 344L278 343z"/>
<path style="fill:#296e71; stroke:none;" d="M349 346C351.706 344.493 353.913 344.09 357 344C354.026 342.286 349.82 342.172 349 346z"/>
<path style="fill:#888887; stroke:none;" d="M357 343L357 346C357.696 344.446 357.696 344.554 357 343z"/>
<path style="fill:#296e71; stroke:none;" d="M369 343L370 344L369 343z"/>
<path style="fill:#888887; stroke:none;" d="M374 343L375 344L374 343z"/>
<path style="fill:#a6c9ca; stroke:none;" d="M375 343L376 344L375 343M405 343L406 344L405 343z"/>
<path style="fill:#296e71; stroke:none;" d="M408 343L409 344L408 343z"/>
<path style="fill:#a6c9ca; stroke:none;" d="M410 343L411 344L410 343z"/>
<path style="fill:#888887; stroke:none;" d="M413 343L414 344L413 343z"/>
<path style="fill:#a6c9ca; stroke:none;" d="M94 344L93 346C94.2627 345.029 94.3919 345.306 94 344z"/>
<path style="fill:#296e71; stroke:none;" d="M95 344L96 345L95 344z"/>
<path style="fill:#a6c9ca; stroke:none;" d="M98 344L99 345L98 344M109 344L110 345L109 344z"/>
<path style="fill:#888887; stroke:none;" d="M112 344L113 345L112 344M117 344L118 345L117 344z"/>
<path style="fill:#a6c9ca; stroke:none;" d="M120 344L121 345L120 344z"/>
<path style="fill:#888887; stroke:none;" d="M203 344L204 345L203 344z"/>
<path style="fill:#a6c9ca; stroke:none;" d="M206 344L207 345L206 344z"/>
<path style="fill:#296e71; stroke:none;" d="M211 344L212 345L211 344M213 344L214 345L213 344M228 344L229 345L228 344z"/>
<path style="fill:#888887; stroke:none;" d="M235 344L236 345L235 344z"/>
<path style="fill:#a6c9ca; stroke:none;" d="M236 344L237 345L236 344z"/>
<path style="fill:#888887; stroke:none;" d="M273 344L274 345L273 344z"/>
<path style="fill:#296e71; stroke:none;" d="M280 344L281 345L280 344z"/>
<path style="fill:#888887; stroke:none;" d="M281 344L282 345L281 344z"/>
<path style="fill:#296e71; stroke:none;" d="M295 344L295 347C295.696 345.446 295.696 345.554 295 344M332 344L333 345L332 344z"/>
<path style="fill:#161616; stroke:none;" d="M350 344L350 346L357 346L357 344L350 344z"/>
<path style="fill:#a6c9ca; stroke:none;" d="M369 344L370 345L369 344z"/>
<path style="fill:#888887; stroke:none;" d="M370 344L371 345L370 344M377 344L378 345L377 344z"/>
<path style="fill:#a6c9ca; stroke:none;" d="M378 344L379 345L378 344z"/>
<path style="fill:#888887; stroke:none;" d="M406 344L407 345L406 344z"/>
<path style="fill:#296e71; stroke:none;" d="M409.333 344.667C409.278 344.722 409.222 345.778 409.667 345.333C409.722 345.278 409.778 344.222 409.333 344.667z"/>
<path style="fill:#888887; stroke:none;" d="M94 345L95 346L94 345z"/>
<path style="fill:#296e71; stroke:none;" d="M97 345L96 347C97.2627 346.029 97.3919 346.306 97 345z"/>
<path style="fill:#888887; stroke:none;" d="M109 345L110 346L109 345z"/>
<path style="fill:#a6c9ca; stroke:none;" d="M117 345L118 346L117 345z"/>
<path style="fill:#888887; stroke:none;" d="M120 345L121 346L120 345z"/>
<path style="fill:#296e71; stroke:none;" d="M205 345L206 346L205 345z"/>
<path style="fill:#888887; stroke:none;" d="M211 345L212 346L211 345M214 345L215 346L214 345M230 345L231 346L230 345M237 345L238 346L237 345M275 345L276 346L275 345z"/>
<path style="fill:#296e71; stroke:none;" d="M276 345L277 346L276 345z"/>
<path style="fill:#888887; stroke:none;" d="M282 345L283 346L282 345z"/>
<path style="fill:#a6c9ca; stroke:none;" d="M283 345L284 346L283 345z"/>
<path style="fill:#888887; stroke:none;" d="M331 345L332 346L331 345z"/>
<path style="fill:#296e71; stroke:none;" d="M334 345L335 346L334 345z"/>
<path style="fill:#a6c9ca; stroke:none;" d="M371 345L372 346L371 345z"/>
<path style="fill:#888887; stroke:none;" d="M372 345L373 346L372 345M379 345C379.545 346.635 379.365 346.455 381 347C380.455 345.365 380.635 345.545 379 345z"/>
<path style="fill:#a6c9ca; stroke:none;" d="M380 345L381 346L380 345M406 345L407 346L406 345z"/>
<path style="fill:#888887; stroke:none;" d="M412 345L413 346L412 345z"/>
<path style="fill:#a6c9ca; stroke:none;" d="M97 346L98 347L97 346M108 346L109 347L108 346z"/>
<path style="fill:#888887; stroke:none;" d="M118 346L119 347L118 346z"/>
<path style="fill:#a6c9ca; stroke:none;" d="M121 346L122 347L121 346M202 346L203 347L202 346z"/>
<path style="fill:#888887; stroke:none;" d="M205 346L206 347L205 346z"/>
<path style="fill:#296e71; stroke:none;" d="M212 346L213 347L212 346z"/>
<path style="fill:#a6c9ca; stroke:none;" d="M232 346L233 347L232 346z"/>
<path style="fill:#888887; stroke:none;" d="M233 346L234 347L233 346z"/>
<path style="fill:#296e71; stroke:none;" d="M234 346L235 347L234 346z"/>
<path style="fill:#888887; stroke:none;" d="M238 346L239 347L238 346M278.667 346.333C278.222 346.778 279.278 346.722 279.333 346.667C279.778 346.222 278.722 346.278 278.667 346.333z"/>
<path style="fill:#296e71; stroke:none;" d="M283 346L284 347L283 346z"/>
<path style="fill:#a6c9ca; stroke:none;" d="M334 346L335 347L334 346z"/>
<path style="fill:#888887; stroke:none;" d="M374.667 346.333C374.222 346.778 375.278 346.722 375.333 346.667C375.778 346.222 374.722 346.278 374.667 346.333z"/>
<path style="fill:#296e71; stroke:none;" d="M376 346L377 347L376 346z"/>
<path style="fill:#888887; stroke:none;" d="M407 346L408 347L407 346z"/>
<path style="fill:#296e71; stroke:none;" d="M411 346L412 347L411 346z"/>
<path style="fill:#a6c9ca; stroke:none;" d="M412 346L413 347L412 346M96 347L97 348L96 347z"/>
<path style="fill:#888887; stroke:none;" d="M108 347L109 348L108 347M121 347L122 348L121 347M202 347L203 348L202 347z"/>
<path style="fill:#a6c9ca; stroke:none;" d="M215 347L216 348L215 347z"/>
<path style="fill:#888887; stroke:none;" d="M235 347L236 348L235 347M280 347L281 348L280 347z"/>
<path style="fill:#a6c9ca; stroke:none;" d="M284 347L284 351C284.71 349.24 284.71 348.76 284 347z"/>
<path style="fill:#296e71; stroke:none;" d="M308 347L309 348L308 347z"/>
<path style="fill:#a6c9ca; stroke:none;" d="M311 347L312 348L311 347z"/>
<path style="fill:#888887; stroke:none;" d="M332 347L333 348L332 347M377 347L378 348L377 347M411 347L412 348L411 347z"/>
<path style="fill:#296e71; stroke:none;" d="M87 348C88.506 348.683 89.3148 348.826 91 349C89.4939 348.317 88.6852 348.174 87 348z"/>
<path style="fill:#888887; stroke:none;" d="M91 348C92.2484 348.685 92.5484 348.749 94 349C92.7517 348.315 92.4515 348.251 91 348z"/>
<path style="fill:#a6c9ca; stroke:none;" d="M94 348L95 349L94 348z"/>
<path style="fill:#296e71; stroke:none;" d="M108 348L109 349L108 348M121 348L122 349L121 348z"/>
<path style="fill:#a6c9ca; stroke:none;" d="M201 348L202 349L201 348z"/>
<path style="fill:#296e71; stroke:none;" d="M215 348L216 349L215 348z"/>
<path style="fill:#a6c9ca; stroke:none;" d="M235.333 348.667C235.278 348.722 235.222 349.778 235.667 349.333C235.722 349.278 235.778 348.222 235.333 348.667z"/>
<path style="fill:#296e71; stroke:none;" d="M281.333 348.667C281.278 348.722 281.222 349.778 281.667 349.333C281.722 349.278 281.778 348.222 281.333 348.667z"/>
<path style="fill:#888887; stroke:none;" d="M293 348L294 349L293 348M296 348L297 349L296 348M307 348L308 349L307 348z"/>
<path style="fill:#296e71; stroke:none;" d="M310 348L311 349L310 348M324 348C325.506 348.683 326.315 348.826 328 349C326.494 348.317 325.685 348.174 324 348z"/>
<path style="fill:#888887; stroke:none;" d="M328 348L329 349L328 348z"/>
<path style="fill:#296e71; stroke:none;" d="M329 348L330 349L329 348z"/>
<path style="fill:#a6c9ca; stroke:none;" d="M332 348L333 349L332 348M377 348L376 351C377.289 349.557 377.401 349.766 377 348M381.333 348.667C381.278 348.722 381.222 349.778 381.667 349.333C381.722 349.278 381.778 348.222 381.333 348.667z"/>
<path style="fill:#296e71; stroke:none;" d="M408 348L408 354C408.951 351.715 408.951 350.285 408 348z"/>
<path style="fill:#a6c9ca; stroke:none;" d="M411 348L411 354C411.951 351.715 411.951 350.285 411 348M87 349L87 353C87.7102 351.241 87.7102 350.759 87 349z"/>
<path style="fill:#888887; stroke:none;" d="M107 349L108 350L107 349M110.667 349.333C110.222 349.778 111.278 349.722 111.333 349.667C111.778 349.222 110.722 349.278 110.667 349.333z"/>
<path style="fill:#296e71; stroke:none;" d="M112 349C114.332 349.985 116.457 349.981 119 350C116.668 349.015 114.543 349.019 112 349z"/>
<path style="fill:#888887; stroke:none;" d="M122 349L123 350L122 349M201 349L202 350L201 349z"/>
<path style="fill:#296e71; stroke:none;" d="M204 349C207.163 350.327 210.586 350 214 350C210.837 348.673 207.414 349 204 349z"/>
<path style="fill:#a6c9ca; stroke:none;" d="M225 349L225 352C225.696 350.446 225.696 350.554 225 349z"/>
<path style="fill:#296e71; stroke:none;" d="M226 349L227 350L226 349z"/>
<path style="fill:#888887; stroke:none;" d="M227 349L228 350L227 349M271.667 349.333C271.222 349.778 272.278 349.722 272.333 349.667C272.778 349.222 271.722 349.278 271.667 349.333z"/>
<path style="fill:#a6c9ca; stroke:none;" d="M273 349L274 350L273 349M293 349C293.545 350.635 293.365 350.455 295 351C294.455 349.365 294.635 349.545 293 349z"/>
<path style="fill:#296e71; stroke:none;" d="M294 349L295 350L294 349z"/>
<path style="fill:#888887; stroke:none;" d="M297 349L298 350L297 349z"/>
<path style="fill:#a6c9ca; stroke:none;" d="M306 349L307 350L306 349z"/>
<path style="fill:#888887; stroke:none;" d="M310 349L311 350L310 349z"/>
<path style="fill:#a6c9ca; stroke:none;" d="M329 349L330 350L329 349z"/>
<path style="fill:#888887; stroke:none;" d="M332 349L333 350L332 349M369 349L370 350L369 349z"/>
<path style="fill:#a6c9ca; stroke:none;" d="M370 349L371 350L370 349z"/>
<path style="fill:#296e71; stroke:none;" d="M109 350L110 351L109 350M120.333 350.667C120.278 350.722 120.222 351.778 120.667 351.333C120.722 351.278 120.778 350.222 120.333 350.667M122 350L123 351L122 350z"/>
<path style="fill:#a6c9ca; stroke:none;" d="M200 350L201 351L200 350z"/>
<path style="fill:#888887; stroke:none;" d="M203.333 350.667C203.278 350.722 203.222 351.778 203.667 351.333C203.722 351.278 203.778 350.222 203.333 350.667M216 350L217 351L216 350M229 350L230 351L229 350M235 350L236 351L235 350M274 350L275 351L274 350z"/>
<path style="fill:#a6c9ca; stroke:none;" d="M275 350L276 351L275 350z"/>
<path style="fill:#888887; stroke:none;" d="M280 350L281 351L280 350M298 350L299 351L298 350z"/>
<path style="fill:#a6c9ca; stroke:none;" d="M299 350L300 351L299 350z"/>
<path style="fill:#888887; stroke:none;" d="M304.667 350.333C304.222 350.778 305.278 350.722 305.333 350.667C305.778 350.222 304.722 350.278 304.667 350.333z"/>
<path style="fill:#296e71; stroke:none;" d="M306 350L307 351L306 350z"/>
<path style="fill:#888887; stroke:none;" d="M309 350L310 351L309 350z"/>
<path style="fill:#296e71; stroke:none;" d="M321 350L321 354C321.71 352.241 321.71 351.759 321 350z"/>
<path style="fill:#888887; stroke:none;" d="M330 350L331 351L330 350M333 350L334 351L333 350z"/>
<path style="fill:#a6c9ca; stroke:none;" d="M367.333 350.667C367.278 350.722 367.222 351.778 367.667 351.333C367.722 351.278 367.778 350.222 367.333 350.667z"/>
<path style="fill:#888887; stroke:none;" d="M371 350L372 351L371 350M377 350L378 351L377 350z"/>
<path style="fill:#296e71; stroke:none;" d="M380 350L381 351L380 350z"/>
<path style="fill:#a6c9ca; stroke:none;" d="M106 351L107 352L106 351z"/>
<path style="fill:#888887; stroke:none;" d="M109 351L110 352L109 351M200 351L201 352L200 351M238 351L239 352L238 351z"/>
<path style="fill:#296e71; stroke:none;" d="M252 351C255.163 352.327 258.586 352 262 352C258.837 350.673 255.414 351 252 351z"/>
<path style="fill:#a6c9ca; stroke:none;" d="M262 351L262 354C262.696 352.446 262.696 352.554 262 351z"/>
<path style="fill:#888887; stroke:none;" d="M283 351L284 352L283 351M295 351L296 352L295 351z"/>
<path style="fill:#296e71; stroke:none;" d="M300 351C301.506 351.683 302.315 351.826 304 352C302.494 351.317 301.685 351.174 300 351z"/>
<path style="fill:#888887; stroke:none;" d="M308 351L309 352L308 351z"/>
<path style="fill:#296e71; stroke:none;" d="M333 351C333.545 352.635 333.365 352.455 335 353C334.455 351.365 334.635 351.545 333 351z"/>
<path style="fill:#a6c9ca; stroke:none;" d="M334 351L335 352L334 351z"/>
<path style="fill:#888887; stroke:none;" d="M349 351L350 352L349 351z"/>
<path style="fill:#296e71; stroke:none;" d="M350 351C352.89 352.213 355.874 351.998 359 352C356.11 350.787 353.126 351.002 350 351z"/>
<path style="fill:#888887; stroke:none;" d="M380 351L381 352L380 351z"/>
<path style="fill:#296e71; stroke:none;" d="M106 352L107 353L106 352z"/>
<path style="fill:#a6c9ca; stroke:none;" d="M120.333 352.667C120.278 352.722 120.222 353.778 120.667 353.333C120.722 353.278 120.778 352.222 120.333 352.667z"/>
<path style="fill:#296e71; stroke:none;" d="M123 352L124 353L123 352M202 352L203 353L202 352z"/>
<path style="fill:#a6c9ca; stroke:none;" d="M214.333 352.667C214.278 352.722 214.222 353.778 214.667 353.333C214.722 353.278 214.778 352.222 214.333 352.667z"/>
<path style="fill:#888887; stroke:none;" d="M217 352L218 353L217 352M227 352L228 353L227 352z"/>
<path style="fill:#a6c9ca; stroke:none;" d="M237 352L238 353L237 352z"/>
<path style="fill:#888887; stroke:none;" d="M272 352L273 353L272 352z"/>
<path style="fill:#296e71; stroke:none;" d="M273 352L274 353L273 352z"/>
<path style="fill:#888887; stroke:none;" d="M282 352L283 353L282 352z"/>
<path style="fill:#a6c9ca; stroke:none;" d="M296 352L297 353L296 352z"/>
<path style="fill:#296e71; stroke:none;" d="M297 352L298 353L297 352z"/>
<path style="fill:#a6c9ca; stroke:none;" d="M307 352L308 353L307 352M345.333 352.667C345.278 352.722 345.222 353.778 345.667 353.333C345.722 353.278 345.778 352.222 345.333 352.667z"/>
<path style="fill:#888887; stroke:none;" d="M369 352L370 353L369 352z"/>
<path style="fill:#a6c9ca; stroke:none;" d="M379 352L380 353L379 352z"/>
<path style="fill:#888887; stroke:none;" d="M87 353L88 354L87 353z"/>
<path style="fill:#a6c9ca; stroke:none;" d="M105 353L106 354L105 353M124 353L125 354L124 353M199 353L200 354L199 353z"/>
<path style="fill:#888887; stroke:none;" d="M202 353L203 354L202 353z"/>
<path style="fill:#296e71; stroke:none;" d="M217 353L218 354L217 353z"/>
<path style="fill:#888887; stroke:none;" d="M229 353L230 354L229 353z"/>
<path style="fill:#296e71; stroke:none;" d="M230 353L231 354L230 353M234 353L235 354L234 353z"/>
<path style="fill:#888887; stroke:none;" d="M235 353L236 354L235 353z"/>
<path style="fill:#a6c9ca; stroke:none;" d="M236 353L237 354L236 353M274 353L275 354L274 353z"/>
<path style="fill:#888887; stroke:none;" d="M275 353L276 354L275 353M280 353L281 354L280 353z"/>
<path style="fill:#a6c9ca; stroke:none;" d="M281 353L282 354L281 353M298 353L299 354L298 353z"/>
<path style="fill:#888887; stroke:none;" d="M299 353L300 354L299 353M304 353L305 354L304 353z"/>
<path style="fill:#a6c9ca; stroke:none;" d="M305 353L306 354L305 353M324 353L325 354L324 353z"/>
<path style="fill:#296e71; stroke:none;" d="M332 353L333 354L332 353z"/>
<path style="fill:#888887; stroke:none;" d="M335 353L336 354L335 353z"/>
<path style="fill:#a6c9ca; stroke:none;" d="M359 353L360 354L359 353z"/>
<path style="fill:#888887; stroke:none;" d="M371.667 353.333C371.222 353.778 372.278 353.722 372.333 353.667C372.778 353.222 371.722 353.278 371.667 353.333z"/>
<path style="fill:#296e71; stroke:none;" d="M376 353L377 354L376 353z"/>
<path style="fill:#888887; stroke:none;" d="M377 353L378 354L377 353z"/>
<path style="fill:#296e71; stroke:none;" d="M128.667 371.333C128.222 371.778 129.278 371.722 129.333 371.667C129.778 371.222 128.722 371.278 128.667 371.333z"/>
<path style="fill:#161616; stroke:none;" d="M137 385C134.718 385.537 132.39 386.177 130.042 385.552C125.066 384.225 123.868 377.971 128.228 375.049C131.043 373.163 134.043 374.132 137 375C132.901 368.306 123.117 372.561 123.117 380C123.117 387.439 132.901 391.694 137 385z"/>
<path style="fill:#296e71; stroke:none;" d="M133 371L134 372L133 371z"/>
<path style="fill:#888887; stroke:none;" d="M134 371L135 372L134 371M152.667 371.333C152.222 371.778 153.278 371.722 153.333 371.667C153.778 371.222 152.722 371.278 152.667 371.333z"/>
<path style="fill:#161616; stroke:none;" d="M154.001 371.696C142.778 374.587 147.136 391.155 157.985 388.304C168.918 385.431 164.811 368.912 154.001 371.696z"/>
<path style="fill:#888887; stroke:none;" d="M158.667 371.333C158.222 371.778 159.278 371.722 159.333 371.667C159.778 371.222 158.722 371.278 158.667 371.333z"/>
<path style="fill:#a6c9ca; stroke:none;" d="M174 371L174 389C175.952 384.349 175.952 375.651 174 371z"/>
<path style="fill:#161616; stroke:none;" d="M175 371L175 389L177 389L177 376C181.563 379.991 184.099 387.084 190 389L190 371L188 371C188 375.438 188.033 379.662 187 384C183.326 379.367 180.419 373.648 175 371z"/>
<path style="fill:#296e71; stroke:none;" d="M177 371L178 372L177 371M187 371L187 383C188.512 379.396 188.512 374.604 187 371z"/>
<path style="fill:#a6c9ca; stroke:none;" d="M203 371L204 372L203 371z"/>
<path style="fill:#888887; stroke:none;" d="M204 371L205 372L204 371z"/>
<path style="fill:#161616; stroke:none;" d="M211 386C207.265 385.969 203.695 385.467 200 385C202.185 387.11 204.723 388.791 207.981 388.242C210.805 387.766 213.416 385.183 211.914 382.22C210.392 379.218 205.889 378.123 203 377L203 375C206.368 374.198 209.545 374.01 213 374C210.097 371.627 199.938 369.89 201.752 376.802C202.912 381.226 209.468 381.134 211 386z"/>
<path style="fill:#888887; stroke:none;" d="M208.667 371.333C208.222 371.778 209.278 371.722 209.333 371.667C209.778 371.222 208.722 371.278 208.667 371.333z"/>
<path style="fill:#a6c9ca; stroke:none;" d="M210 371L211 372L210 371z"/>
<path style="fill:#161616; stroke:none;" d="M223 371C223 375.103 221.953 381.024 224.179 384.671C227.271 389.735 234.935 389.568 237.258 383.945C238.82 380.163 238 375.016 238 371L236 371C236 374.846 236.943 380.355 234.821 383.768C232.65 387.258 228.126 386.537 226.603 382.89C225.181 379.484 226 374.628 226 371L223 371z"/>
<path style="fill:#a6c9ca; stroke:none;" d="M235 371L235 382C236.431 378.59 236.431 374.41 235 371z"/>
<path style="fill:#888887; stroke:none;" d="M238 371C238 376.081 238.183 381.03 237 386C239.868 382.214 239.818 375.333 238 371z"/>
<path style="fill:#161616; stroke:none;" d="M249 371L249 389L260 389L260 387C256.878 386.974 254.04 386.724 251 386C252.435 381.147 252 376.036 252 371L249 371M267 371L267 373L273 373L273 389L275 389C275 382.702 273.066 374.265 281 373L281 371L267 371z"/>
<path style="fill:#a6c9ca; stroke:none;" d="M281 371L281 374C281.696 372.446 281.696 372.554 281 371M294 371L295 372L294 371z"/>
<path style="fill:#888887; stroke:none;" d="M295 371L296 372L295 371z"/>
<path style="fill:#161616; stroke:none;" d="M296.001 371.696C284.813 374.578 289.259 391.07 299.999 388.304C311.227 385.412 306.876 368.895 296.001 371.696z"/>
<path style="fill:#888887; stroke:none;" d="M300.667 371.333C300.222 371.778 301.278 371.722 301.333 371.667C301.778 371.222 300.722 371.278 300.667 371.333z"/>
<path style="fill:#161616; stroke:none;" d="M317 371L317 389L320 389L320 383C324.772 383.742 326.717 387.557 331 389C328.575 383.852 331.567 380.992 330.508 376.105C329.253 370.31 321.447 371.003 317 371z"/>
<path style="fill:#888887; stroke:none;" d="M326.667 371.333C326.222 371.778 327.278 371.722 327.333 371.667C327.778 371.222 326.722 371.278 326.667 371.333z"/>
<path style="fill:#161616; stroke:none;" d="M342 371L342 389L355 389L355 387C351.214 386.997 347.694 386.879 344 386C344.481 383.799 344.481 383.201 344 381L353 381L353 379C350.151 379.021 347.729 379.19 345 380C344.806 377.894 344.583 376.027 344 374C347.368 373.198 350.545 373.01 354 373L354 371L342 371z"/>
<path style="fill:#888887; stroke:none;" d="M354 371L354 374C354.696 372.446 354.696 372.554 354 371z"/>
<path style="fill:#a6c9ca; stroke:none;" d="M367 371L368 372L367 371z"/>
<path style="fill:#161616; stroke:none;" d="M374 386C370.578 385.972 367.363 385.625 364 385C366.757 388.122 378.217 390.628 376.248 383.09C375.344 379.627 369.891 378.188 367 377L367 375C370.269 374.249 372.731 374.249 376 375C374.514 369.919 365.435 369.882 365.435 375.981C365.435 380.53 372.826 381.189 374 386z"/>
<path style="fill:#888887; stroke:none;" d="M373 371L374 372L373 371z"/>
<path style="fill:#a6c9ca; stroke:none;" d="M374 371L375 372L374 371z"/>
<path style="fill:#888887; stroke:none;" d="M126 372L127 373L126 372M136 372L137 373L136 372M150 372L151 373L150 372z"/>
<path style="fill:#296e71; stroke:none;" d="M151 372L152 373L151 372z"/>
<path style="fill:#888887; stroke:none;" d="M160 372L161 373L160 372z"/>
<path style="fill:#a6c9ca; stroke:none;" d="M161 372L162 373L161 372z"/>
<path style="fill:#888887; stroke:none;" d="M178 372L179 373L178 372z"/>
<path style="fill:#a6c9ca; stroke:none;" d="M201 372L202 373L201 372z"/>
<path style="fill:#888887; stroke:none;" d="M202 372L203 373L202 372M212 372L213 373L212 372z"/>
<path style="fill:#a6c9ca; stroke:none;" d="M292 372L293 373L292 372z"/>
<path style="fill:#888887; stroke:none;" d="M293 372L294 373L293 372z"/>
<path style="fill:#296e71; stroke:none;" d="M302 372L303 373L302 372z"/>
<path style="fill:#888887; stroke:none;" d="M303 372L304 373L303 372z"/>
<path style="fill:#296e71; stroke:none;" d="M328 372L329 373L328 372z"/>
<path style="fill:#888887; stroke:none;" d="M329 372L330 373L329 372z"/>
<path style="fill:#a6c9ca; stroke:none;" d="M365 372L366 373L365 372z"/>
<path style="fill:#296e71; stroke:none;" d="M366 372L367 373L366 372z"/>
<path style="fill:#888887; stroke:none;" d="M376.333 372.667C376.278 372.722 376.222 373.778 376.667 373.333C376.722 373.278 376.778 372.222 376.333 372.667z"/>
<path style="fill:#a6c9ca; stroke:none;" d="M124 373L123 375C124.263 374.029 124.392 374.306 124 373z"/>
<path style="fill:#888887; stroke:none;" d="M125 373L126 374L125 373M130 373C131.248 373.685 131.548 373.749 133 374C131.752 373.315 131.452 373.251 130 373M137.333 373.667C137.278 373.722 137.222 374.778 137.667 374.333C137.722 374.278 137.778 373.222 137.333 373.667M149 373L150 374L149 373z"/>
<path style="fill:#296e71; stroke:none;" d="M154 373C155.506 373.683 156.315 373.826 158 374C156.494 373.317 155.685 373.174 154 373z"/>
<path style="fill:#888887; stroke:none;" d="M162 373L163 374L162 373z"/>
<path style="fill:#a6c9ca; stroke:none;" d="M179 373L180 374L179 373z"/>
<path style="fill:#888887; stroke:none;" d="M201 373L202 374L201 373z"/>
<path style="fill:#296e71; stroke:none;" d="M267 373C269.052 373.874 270.747 373.953 273 374C270.948 373.126 269.253 373.047 267 373M276 373C277.769 373.779 279.036 373.912 281 374C279.231 373.221 277.964 373.088 276 373z"/>
<path style="fill:#888887; stroke:none;" d="M291 373L292 374L291 373z"/>
<path style="fill:#296e71; stroke:none;" d="M297 373C298.248 373.685 298.548 373.749 300 374C298.752 373.315 298.452 373.251 297 373z"/>
<path style="fill:#888887; stroke:none;" d="M304 373L305 374L304 373z"/>
<path style="fill:#296e71; stroke:none;" d="M320 373C322.052 373.874 323.747 373.953 326 374C323.948 373.126 322.253 373.047 320 373z"/>
<path style="fill:#888887; stroke:none;" d="M330 373C330.572 375.377 330.89 377.558 331 380C332.15 377.169 331.827 375.412 330 373z"/>
<path style="fill:#296e71; stroke:none;" d="M345 373C347.89 374.213 350.874 373.998 354 374C351.11 372.787 348.126 373.002 345 373M365 373L366 374L365 373M124 374L125 375L124 374z"/>
<path style="fill:#a6c9ca; stroke:none;" d="M134 374L135 375L134 374z"/>
<path style="fill:#888887; stroke:none;" d="M135 374L136 375L135 374M148 374L149 375L148 374z"/>
<path style="fill:#a6c9ca; stroke:none;" d="M152.667 374.333C152.222 374.778 153.278 374.722 153.333 374.667C153.778 374.222 152.722 374.278 152.667 374.333z"/>
<path style="fill:#ffffff; stroke:none;" d="M154.059 374.697C146.768 376.705 151.029 387.638 157.941 385.214C164.974 382.747 160.966 372.794 154.059 374.697z"/>
<path style="fill:#888887; stroke:none;" d="M158.667 374.333C158.222 374.778 159.278 374.722 159.333 374.667C159.778 374.222 158.722 374.278 158.667 374.333M163 374L164 375L163 374z"/>
<path style="fill:#a6c9ca; stroke:none;" d="M180 374L181 375L180 374z"/>
<path style="fill:#888887; stroke:none;" d="M204 374L205 375L204 374z"/>
<path style="fill:#a6c9ca; stroke:none;" d="M208.667 374.333C208.222 374.778 209.278 374.722 209.333 374.667C209.778 374.222 208.722 374.278 208.667 374.333z"/>
<path style="fill:#888887; stroke:none;" d="M210 374L211 375L210 374z"/>
<path style="fill:#296e71; stroke:none;" d="M211.667 374.333C211.222 374.778 212.278 374.722 212.333 374.667C212.778 374.222 211.722 374.278 211.667 374.333z"/>
<path style="fill:#a6c9ca; stroke:none;" d="M272 374L272 389C273.74 384.852 273.74 378.148 272 374z"/>
<path style="fill:#888887; stroke:none;" d="M275 374L275 389C276.74 384.852 276.74 378.148 275 374z"/>
<path style="fill:#a6c9ca; stroke:none;" d="M290 374L291 375L290 374z"/>
<path style="fill:#888887; stroke:none;" d="M294 374C292.814 375.186 292.472 375.584 292 377C293.548 375.738 293.808 375.806 294 374z"/>
<path style="fill:#a6c9ca; stroke:none;" d="M295 374L296 375L295 374z"/>
<path style="fill:#ffffff; stroke:none;" d="M296.109 374.762C289.394 377.329 293.19 387.63 299.942 385.353C306.876 383.014 303.06 372.103 296.109 374.762z"/>
<path style="fill:#888887; stroke:none;" d="M301 374L302 375L301 374M305 374L306 375L305 374z"/>
<path style="fill:#ffffff; stroke:none;" d="M320 374L320 381C329.119 380.779 329.174 374.109 320 374z"/>
<path style="fill:#a6c9ca; stroke:none;" d="M327 374L328 375L327 374z"/>
<path style="fill:#296e71; stroke:none;" d="M330 374L331 375L330 374z"/>
<path style="fill:#888887; stroke:none;" d="M344 374L345 375L344 374M364 374L364 378C364.71 376.241 364.71 375.759 364 374z"/>
<path style="fill:#a6c9ca; stroke:none;" d="M373 374L374 375L373 374z"/>
<path style="fill:#296e71; stroke:none;" d="M374 374L375 375L374 374z"/>
<path style="fill:#a6c9ca; stroke:none;" d="M376 374L377 375L376 374z"/>
<path style="fill:#888887; stroke:none;" d="M123 375L124 376L123 375z"/>
<path style="fill:#296e71; stroke:none;" d="M126 375L127 376L126 375z"/>
<path style="fill:#a6c9ca; stroke:none;" d="M127 375L128 376L127 375z"/>
<path style="fill:#888887; stroke:none;" d="M136 375L137 376L136 375z"/>
<path style="fill:#a6c9ca; stroke:none;" d="M147 375L148 376L147 375z"/>
<path style="fill:#888887; stroke:none;" d="M151 375L152 376L151 375M160 375L161 376L160 375M180 375L181 376L180 375z"/>
<path style="fill:#a6c9ca; stroke:none;" d="M200.333 375.667C200.278 375.722 200.222 376.778 200.667 376.333C200.722 376.278 200.778 375.222 200.333 375.667z"/>
<path style="fill:#296e71; stroke:none;" d="M203 375C203.684 376.58 203.805 376.777 205 378C204.309 376.612 204.015 376.139 203 375z"/>
<path style="fill:#a6c9ca; stroke:none;" d="M204.333 375.667C204.278 375.722 204.222 376.778 204.667 376.333C204.722 376.278 204.778 375.222 204.333 375.667M289 375L290 376L289 375z"/>
<path style="fill:#888887; stroke:none;" d="M302 375L303 376L302 375M306 375L307 376L306 375M328 375L329 376L328 375z"/>
<path style="fill:#296e71; stroke:none;" d="M367.333 375.667C367.278 375.722 367.222 376.778 367.667 376.333C367.722 376.278 367.778 375.222 367.333 375.667z"/>
<path style="fill:#a6c9ca; stroke:none;" d="M375 375L376 376L375 375z"/>
<path style="fill:#888887; stroke:none;" d="M122.333 376.667C122.278 376.722 122.222 377.778 122.667 377.333C122.722 377.278 122.778 376.222 122.333 376.667M161 376L162 377L161 376z"/>
<path style="fill:#296e71; stroke:none;" d="M164 376L165 377L164 376z"/>
<path style="fill:#888887; stroke:none;" d="M177 376L177 389C178.673 385.012 177.984 380.267 179 376L177 376M181 376L182 377L181 376z"/>
<path style="fill:#a6c9ca; stroke:none;" d="M303 376L304 377L303 376M307.333 376.667C307.278 376.722 307.222 377.778 307.667 377.333C307.722 377.278 307.778 376.222 307.333 376.667M328 376L328 379C328.696 377.446 328.696 377.554 328 376z"/>
<path style="fill:#888887; stroke:none;" d="M125 377L126 378L125 377M146 377L146 382C146.83 379.969 146.83 379.03 146 377z"/>
<path style="fill:#a6c9ca; stroke:none;" d="M178 377L179 378L178 377M182 377C182.545 378.635 182.365 378.455 184 379C183.455 377.365 183.635 377.545 182 377M205 377L206 378L205 377M292 377L293 378L292 377z"/>
<path style="fill:#296e71; stroke:none;" d="M344 377L345 378L344 377z"/>
<path style="fill:#a6c9ca; stroke:none;" d="M368.667 377.333C368.222 377.778 369.278 377.722 369.333 377.667C369.778 377.222 368.722 377.278 368.667 377.333z"/>
<path style="fill:#296e71; stroke:none;" d="M122 378L122 382C122.71 380.241 122.71 379.759 122 378z"/>
<path style="fill:#a6c9ca; stroke:none;" d="M125 378L125 382C125.71 380.241 125.71 379.759 125 378z"/>
<path style="fill:#888887; stroke:none;" d="M149 378L149 382C149.71 380.241 149.71 379.759 149 378M162 378L162 382C162.71 380.241 162.71 379.759 162 378z"/>
<path style="fill:#a6c9ca; stroke:none;" d="M165 378L165 382C165.71 380.241 165.71 379.759 165 378z"/>
<path style="fill:#888887; stroke:none;" d="M179 378L180 379L179 378z"/>
<path style="fill:#296e71; stroke:none;" d="M182 378L183 379L182 378z"/>
<path style="fill:#888887; stroke:none;" d="M201 378L202 379L201 378z"/>
<path style="fill:#296e71; stroke:none;" d="M206 378L207 379L206 378z"/>
<path style="fill:#888887; stroke:none;" d="M207 378L208 379L207 378z"/>
<path style="fill:#a6c9ca; stroke:none;" d="M288 378L288 382C288.71 380.241 288.71 379.759 288 378z"/>
<path style="fill:#888887; stroke:none;" d="M291 378L291 382C291.71 380.241 291.71 379.759 291 378M304 378L305 379L304 378M307 378L307 382C307.71 380.241 307.71 379.759 307 378z"/>
<path style="fill:#296e71; stroke:none;" d="M345 380C347.709 379.352 350.216 379.058 353 379C350.08 377.777 347.163 377.524 345 380z"/>
<path style="fill:#888887; stroke:none;" d="M353 378L353 381C353.696 379.446 353.696 379.554 353 378z"/>
<path style="fill:#296e71; stroke:none;" d="M365 378L366 379L365 378z"/>
<path style="fill:#888887; stroke:none;" d="M370 378L371 379L370 378z"/>
<path style="fill:#a6c9ca; stroke:none;" d="M371 378L372 379L371 378z"/>
<path style="fill:#888887; stroke:none;" d="M180 379L181 380L180 379z"/>
<path style="fill:#296e71; stroke:none;" d="M183 379L184 380L183 379z"/>
<path style="fill:#a6c9ca; stroke:none;" d="M202 379L203 380L202 379z"/>
<path style="fill:#296e71; stroke:none;" d="M203 379L204 380L203 379M209 379L210 380L209 379z"/>
<path style="fill:#888887; stroke:none;" d="M210 379L211 380L210 379z"/>
<path style="fill:#a6c9ca; stroke:none;" d="M304.333 379.667C304.278 379.722 304.222 380.778 304.667 380.333C304.722 380.278 304.778 379.222 304.333 379.667z"/>
<path style="fill:#296e71; stroke:none;" d="M328 379L329 380L328 379z"/>
<path style="fill:#a6c9ca; stroke:none;" d="M365 379L366 380L365 379z"/>
<path style="fill:#888887; stroke:none;" d="M366 379L367 380L366 379z"/>
<path style="fill:#296e71; stroke:none;" d="M372 379L373 380L372 379z"/>
<path style="fill:#888887; stroke:none;" d="M373 379L374 380L373 379z"/>
<path style="fill:#a6c9ca; stroke:none;" d="M374 379L375 380L374 379M180 380C180.545 381.635 180.365 381.455 182 382C181.455 380.365 181.635 380.545 180 380z"/>
<path style="fill:#296e71; stroke:none;" d="M181 380L182 381L181 380z"/>
<path style="fill:#888887; stroke:none;" d="M184 380L185 381L184 380z"/>
<path style="fill:#a6c9ca; stroke:none;" d="M204 380L205 381L204 380z"/>
<path style="fill:#888887; stroke:none;" d="M205 380L206 381L205 380z"/>
<path style="fill:#296e71; stroke:none;" d="M211 380C211.545 381.635 211.365 381.455 213 382C212.455 380.365 212.635 380.545 211 380z"/>
<path style="fill:#a6c9ca; stroke:none;" d="M212 380L213 381L212 380z"/>
<path style="fill:#888887; stroke:none;" d="M326.667 380.333C326.222 380.778 327.278 380.722 327.333 380.667C327.778 380.222 326.722 380.278 326.667 380.333M330 380L331 381L330 380z"/>
<path style="fill:#a6c9ca; stroke:none;" d="M367 380L368 381L367 380z"/>
<path style="fill:#296e71; stroke:none;" d="M368.667 380.333C368.222 380.778 369.278 380.722 369.333 380.667C369.778 380.222 368.722 380.278 368.667 380.333z"/>
<path style="fill:#888887; stroke:none;" d="M375 380L376 381L375 380z"/>
<path style="fill:#296e71; stroke:none;" d="M182 381L183 382L182 381z"/>
<path style="fill:#a6c9ca; stroke:none;" d="M185 381C185.545 382.635 185.365 382.455 187 383C186.455 381.365 186.635 381.545 185 381M206.667 381.333C206.222 381.778 207.278 381.722 207.333 381.667C207.778 381.222 206.722 381.278 206.667 381.333z"/>
<path style="fill:#888887; stroke:none;" d="M208 381L209 382L208 381M304 381L305 382L304 381z"/>
<path style="fill:#296e71; stroke:none;" d="M329 381L330 382L329 381z"/>
<path style="fill:#a6c9ca; stroke:none;" d="M330 381L331 382L330 381z"/>
<path style="fill:#888887; stroke:none;" d="M344 381L345 382L344 381z"/>
<path style="fill:#a6c9ca; stroke:none;" d="M370 381L371 382L370 381z"/>
<path style="fill:#888887; stroke:none;" d="M371 381L372 382L371 381z"/>
<path style="fill:#296e71; stroke:none;" d="M372 381L373 382L372 381z"/>
<path style="fill:#888887; stroke:none;" d="M376 381L377 382L376 381z"/>
<path style="fill:#a6c9ca; stroke:none;" d="M122.333 382.667C122.278 382.722 122.222 383.778 122.667 383.333C122.722 383.278 122.778 382.222 122.333 382.667z"/>
<path style="fill:#888887; stroke:none;" d="M125 382L126 383L125 382M182 382L183 383L182 382z"/>
<path style="fill:#296e71; stroke:none;" d="M185 382L186 383L185 382z"/>
<path style="fill:#a6c9ca; stroke:none;" d="M209 382L210 383L209 382z"/>
<path style="fill:#296e71; stroke:none;" d="M210 382L211 383L210 382z"/>
<path style="fill:#888887; stroke:none;" d="M213 382L213 386C213.71 384.241 213.71 383.759 213 382M235.333 382.667C235.278 382.722 235.222 383.778 235.667 383.333C235.722 383.278 235.778 382.222 235.333 382.667z"/>
<path style="fill:#a6c9ca; stroke:none;" d="M292 382L293 383L292 382z"/>
<path style="fill:#888887; stroke:none;" d="M328 382L329 383L328 382z"/>
<path style="fill:#a6c9ca; stroke:none;" d="M329 382L330 383L329 382z"/>
<path style="fill:#888887; stroke:none;" d="M373 382L374 383L373 382z"/>
<path style="fill:#a6c9ca; stroke:none;" d="M150 383L151 384L150 383z"/>
<path style="fill:#888887; stroke:none;" d="M161 383L162 384L161 383z"/>
<path style="fill:#296e71; stroke:none;" d="M164 383L165 384L164 383M183 383L184 384L183 383z"/>
<path style="fill:#888887; stroke:none;" d="M186 383L187 384L186 383M210.333 383.667C210.278 383.722 210.222 384.778 210.667 384.333C210.722 384.278 210.778 383.222 210.333 383.667M289 383L290 384L289 383M292 383L293 384L292 383z"/>
<path style="fill:#a6c9ca; stroke:none;" d="M303 383L304 384L303 383z"/>
<path style="fill:#296e71; stroke:none;" d="M320 383C321.769 383.779 323.036 383.912 325 384C323.231 383.221 321.964 383.088 320 383z"/>
<path style="fill:#a6c9ca; stroke:none;" d="M373.333 383.667C373.278 383.722 373.222 384.778 373.667 384.333C373.722 384.278 373.778 383.222 373.333 383.667z"/>
<path style="fill:#888887; stroke:none;" d="M123 384L124 385L123 384z"/>
<path style="fill:#296e71; stroke:none;" d="M126 384L127 385L126 384z"/>
<path style="fill:#a6c9ca; stroke:none;" d="M127 384L128 385L127 384z"/>
<path style="fill:#888887; stroke:none;" d="M136 384L137 387C137.401 385.234 137.289 385.443 136 384z"/>
<path style="fill:#a6c9ca; stroke:none;" d="M137 384L138 385L137 384M147 384L148 385L147 384z"/>
<path style="fill:#888887; stroke:none;" d="M151 384L152 385L151 384M160 384L161 385L160 384z"/>
<path style="fill:#296e71; stroke:none;" d="M163 384L164 385L163 384M200.667 384.333C200.222 384.778 201.278 384.722 201.333 384.667C201.778 384.222 200.722 384.278 200.667 384.333z"/>
<path style="fill:#888887; stroke:none;" d="M202 384L203 385L202 384z"/>
<path style="fill:#a6c9ca; stroke:none;" d="M223 384L224 385L223 384z"/>
<path style="fill:#296e71; stroke:none;" d="M226 384L227 385L226 384z"/>
<path style="fill:#a6c9ca; stroke:none;" d="M234 384L233 386C234.263 385.029 234.392 385.306 234 384z"/>
<path style="fill:#296e71; stroke:none;" d="M237 384L238 385L237 384z"/>
<path style="fill:#a6c9ca; stroke:none;" d="M289 384L290 385L289 384z"/>
<path style="fill:#888887; stroke:none;" d="M293 384L294 385L293 384M302 384L303 385L302 384z"/>
<path style="fill:#a6c9ca; stroke:none;" d="M306 384L307 385L306 384M325 384L326 385L325 384z"/>
<path style="fill:#296e71; stroke:none;" d="M328 384L329 385L328 384z"/>
<path style="fill:#a6c9ca; stroke:none;" d="M363 384L363 387C363.696 385.446 363.696 385.554 363 384z"/>
<path style="fill:#296e71; stroke:none;" d="M364.667 384.333C364.222 384.778 365.278 384.722 365.333 384.667C365.778 384.222 364.722 384.278 364.667 384.333z"/>
<path style="fill:#a6c9ca; stroke:none;" d="M123 385C123.545 386.635 123.365 386.455 125 387C124.455 385.365 124.635 385.545 123 385z"/>
<path style="fill:#296e71; stroke:none;" d="M124 385L125 386L124 385z"/>
<path style="fill:#a6c9ca; stroke:none;" d="M128.667 385.333C128.222 385.778 129.278 385.722 129.333 385.667C129.778 385.222 128.722 385.278 128.667 385.333z"/>
<path style="fill:#888887; stroke:none;" d="M134 385L135 386L134 385z"/>
<path style="fill:#296e71; stroke:none;" d="M135 385L136 386L135 385z"/>
<path style="fill:#888887; stroke:none;" d="M148 385L149 386L148 385z"/>
<path style="fill:#a6c9ca; stroke:none;" d="M152.667 385.333C152.222 385.778 153.278 385.722 153.333 385.667C153.778 385.222 152.722 385.278 152.667 385.333z"/>
<path style="fill:#888887; stroke:none;" d="M158.667 385.333C158.222 385.778 159.278 385.722 159.333 385.667C159.778 385.222 158.722 385.278 158.667 385.333M163 385L164 386L163 385M184 385L185 386L184 385M203 385L204 386L203 385z"/>
<path style="fill:#a6c9ca; stroke:none;" d="M204 385L205 386L204 385M209 385L210 386L209 385z"/>
<path style="fill:#296e71; stroke:none;" d="M210 385L211 386L210 385z"/>
<path style="fill:#888887; stroke:none;" d="M227 385L228 386L227 385z"/>
<path style="fill:#a6c9ca; stroke:none;" d="M228 385L229 386L228 385z"/>
<path style="fill:#296e71; stroke:none;" d="M234 385L235 386L234 385M251 385L252 386L251 385z"/>
<path style="fill:#a6c9ca; stroke:none;" d="M290 385L291 386L290 385z"/>
<path style="fill:#888887; stroke:none;" d="M294 385L295 386L294 385z"/>
<path style="fill:#a6c9ca; stroke:none;" d="M295 385L296 386L295 385z"/>
<path style="fill:#888887; stroke:none;" d="M301 385L302 386L301 385M305 385L306 386L305 385M326 385L327 386L326 385M329 385L330 386L329 385M344 385L345 386L344 385M366.667 385.333C366.222 385.778 367.278 385.722 367.333 385.667C367.778 385.222 366.722 385.278 366.667 385.333M373 385L374 386L373 385M125 386L126 387L125 386M149 386L150 387L149 386z"/>
<path style="fill:#296e71; stroke:none;" d="M154 386C155.506 386.683 156.315 386.826 158 387C156.494 386.317 155.685 386.174 154 386z"/>
<path style="fill:#888887; stroke:none;" d="M162 386L163 387L162 386M185 386L186 387L185 386M200 386L201 387L200 386z"/>
<path style="fill:#296e71; stroke:none;" d="M212 386L213 387L212 386z"/>
<path style="fill:#a6c9ca; stroke:none;" d="M224 386C224.545 387.635 224.365 387.455 226 388C225.455 386.365 225.635 386.545 224 386z"/>
<path style="fill:#296e71; stroke:none;" d="M225 386L226 387L225 386M229 386C230.506 386.683 231.315 386.826 233 387C231.494 386.317 230.685 386.174 229 386M236 386L237 387L236 386z"/>
<path style="fill:#888887; stroke:none;" d="M252.667 386.333C252.222 386.778 253.278 386.722 253.333 386.667C253.778 386.222 252.722 386.278 252.667 386.333z"/>
<path style="fill:#296e71; stroke:none;" d="M254 386C256.052 386.874 257.747 386.953 260 387C257.948 386.126 256.253 386.047 254 386z"/>
<path style="fill:#888887; stroke:none;" d="M291 386L292 387L291 386z"/>
<path style="fill:#296e71; stroke:none;" d="M297 386C298.248 386.685 298.548 386.749 300 387C298.752 386.315 298.452 386.251 297 386z"/>
<path style="fill:#888887; stroke:none;" d="M304 386L305 387L304 386z"/>
<path style="fill:#296e71; stroke:none;" d="M329 386C329.545 387.635 329.365 387.455 331 388C330.455 386.365 330.635 386.545 329 386z"/>
<path style="fill:#a6c9ca; stroke:none;" d="M330 386L331 387L330 386z"/>
<path style="fill:#296e71; stroke:none;" d="M345 386C348.163 387.327 351.586 387 355 387C351.837 385.673 348.414 386 345 386M364 386L365 387L364 386z"/>
<path style="fill:#a6c9ca; stroke:none;" d="M376 386L377 387L376 386z"/>
<path style="fill:#888887; stroke:none;" d="M126 387L127 388L126 387z"/>
<path style="fill:#a6c9ca; stroke:none;" d="M136 387L137 388L136 387z"/>
<path style="fill:#888887; stroke:none;" d="M150 387L151 388L150 387z"/>
<path style="fill:#296e71; stroke:none;" d="M151 387L152 388L151 387z"/>
<path style="fill:#888887; stroke:none;" d="M160 387L161 388L160 387z"/>
<path style="fill:#a6c9ca; stroke:none;" d="M161 387L162 388L161 387z"/>
<path style="fill:#296e71; stroke:none;" d="M186 387L187 388L186 387z"/>
<path style="fill:#a6c9ca; stroke:none;" d="M201 387L202 388L201 387z"/>
<path style="fill:#296e71; stroke:none;" d="M202 387L203 388L202 387z"/>
<path style="fill:#888887; stroke:none;" d="M211 387L212 388L211 387z"/>
<path style="fill:#a6c9ca; stroke:none;" d="M212 387L213 388L212 387z"/>
<path style="fill:#296e71; stroke:none;" d="M226 387L227 388L226 387z"/>
<path style="fill:#888887; stroke:none;" d="M235 387L236 388L235 387z"/>
<path style="fill:#a6c9ca; stroke:none;" d="M292 387L293 388L292 387z"/>
<path style="fill:#888887; stroke:none;" d="M293 387L294 388L293 387z"/>
<path style="fill:#296e71; stroke:none;" d="M302 387L303 388L302 387z"/>
<path style="fill:#888887; stroke:none;" d="M303 387L304 388L303 387z"/>
<path style="fill:#a6c9ca; stroke:none;" d="M327 387L328 388L327 387z"/>
<path style="fill:#888887; stroke:none;" d="M365 387L366 388L365 387z"/>
<path style="fill:#296e71; stroke:none;" d="M374 387L375 388L374 387z"/>
<path style="fill:#888887; stroke:none;" d="M375 387L376 388L375 387z"/>
<path style="fill:#296e71; stroke:none;" d="M128.667 388.333C128.222 388.778 129.278 388.722 129.333 388.667C129.778 388.222 128.722 388.278 128.667 388.333z"/>
<path style="fill:#888887; stroke:none;" d="M133 388L134 389L133 388z"/>
<path style="fill:#a6c9ca; stroke:none;" d="M134 388L135 389L134 388z"/>
<path style="fill:#888887; stroke:none;" d="M152.667 388.333C152.222 388.778 153.278 388.722 153.333 388.667C153.778 388.222 152.722 388.278 152.667 388.333M158.667 388.333C158.222 388.778 159.278 388.722 159.333 388.667C159.778 388.222 158.722 388.278 158.667 388.333z"/>
<path style="fill:#a6c9ca; stroke:none;" d="M186 388L187 389L186 388M203 388L204 389L203 388z"/>
<path style="fill:#296e71; stroke:none;" d="M204.667 388.333C204.222 388.778 205.278 388.722 205.333 388.667C205.778 388.222 204.722 388.278 204.667 388.333z"/>
<path style="fill:#888887; stroke:none;" d="M208.667 388.333C208.222 388.778 209.278 388.722 209.333 388.667C209.778 388.222 208.722 388.278 208.667 388.333z"/>
<path style="fill:#a6c9ca; stroke:none;" d="M210 388L211 389L210 388z"/>
<path style="fill:#888887; stroke:none;" d="M227 388L228 389L227 388z"/>
<path style="fill:#296e71; stroke:none;" d="M228 388L229 389L228 388z"/>
<path style="fill:#888887; stroke:none;" d="M232.667 388.333C232.222 388.778 233.278 388.722 233.333 388.667C233.778 388.222 232.722 388.278 232.667 388.333z"/>
<path style="fill:#a6c9ca; stroke:none;" d="M234 388L235 389L234 388M294 388L295 389L294 388z"/>
<path style="fill:#888887; stroke:none;" d="M295 388L296 389L295 388M300.667 388.333C300.222 388.778 301.278 388.722 301.333 388.667C301.778 388.222 300.722 388.278 300.667 388.333M331 388L332 389L331 388z"/>
<path style="fill:#a6c9ca; stroke:none;" d="M366.667 388.333C366.222 388.778 367.278 388.722 367.333 388.667C367.778 388.222 366.722 388.278 366.667 388.333z"/>
<path style="fill:#296e71; stroke:none;" d="M372 388L373 389L372 388z"/>
<path style="fill:#888887; stroke:none;" d="M373 388L374 389L373 388z"/>
</svg>
